<?xml version="1.0" encoding="UTF-8" standalone="no"?>
<!-- Generator: Adobe Illustrator 17.0.1, SVG Export Plug-In . SVG Version: 6.00 Build 0)  -->

<svg
   xmlns:dc="http://purl.org/dc/elements/1.1/"
   xmlns:cc="http://creativecommons.org/ns#"
   xmlns:rdf="http://www.w3.org/1999/02/22-rdf-syntax-ns#"
   xmlns:svg="http://www.w3.org/2000/svg"
   xmlns="http://www.w3.org/2000/svg"
   xmlns:xlink="http://www.w3.org/1999/xlink"
   xmlns:sodipodi="http://sodipodi.sourceforge.net/DTD/sodipodi-0.dtd"
   xmlns:inkscape="http://www.inkscape.org/namespaces/inkscape"
   version="1.1"
   id="Layer_1"
   x="0px"
   y="0px"
   width="62"
   height="57"
   viewBox="0 0 62 57"
   enable-background="new 0 0 30 30"
   xml:space="preserve"
   inkscape:version="0.48.4 r9939"
   sodipodi:docname="gde.svg"><metadata
   id="metadata258"><rdf:RDF><cc:Work
       rdf:about=""><dc:format>image/svg+xml</dc:format><dc:type
         rdf:resource="http://purl.org/dc/dcmitype/StillImage" /><dc:title /></cc:Work></rdf:RDF></metadata><defs
   id="defs256" /><sodipodi:namedview
   pagecolor="#ffffff"
   bordercolor="#666666"
   borderopacity="1"
   objecttolerance="10"
   gridtolerance="10"
   guidetolerance="10"
   inkscape:pageopacity="0"
   inkscape:pageshadow="2"
   inkscape:window-width="1920"
   inkscape:window-height="1017"
   id="namedview254"
   showgrid="false"
   inkscape:zoom="7.8666667"
   inkscape:cx="15"
   inkscape:cy="15"
   inkscape:window-x="-8"
   inkscape:window-y="-8"
   inkscape:window-maximized="1"
   inkscape:current-layer="Layer_1" />
<g
   id="g3"
   transform="matrix(2.0689655,0,0,1.8999215,-0.15312659,0.07095868)">
	<g
   id="g5">
		<polygon
   points="7.286,17.234 3.896,20.627 26.125,20.627 22.735,17.234 "
   id="polygon7"
   style="fill:#9d2e2c" />
	</g>
	<g
   id="g9">
		<g
   id="g11">
			
				<rect
   x="4.789"
   y="4.789"
   transform="matrix(-0.7071,0.7071,-0.7071,-0.7071,36.2132,15)"
   width="20.422001"
   height="20.422001"
   id="rect13"
   style="fill:#f4f4f4" />
		</g>
		<g
   id="g15">
			<g
   id="g17">
				<path
   d="M 15,0.619 29.381,15 15,29.381 0.619,15 15,0.619 M 15,0.5 0.5,15 15,29.5 29.5,15 15,0.5 l 0,0 z"
   id="path19"
   inkscape:connector-curvature="0"
   style="fill:#6c6d6d" />
			</g>
		</g>
	</g>
	<g
   id="g21">
		<path
   d="m 12.325,8.747 -0.504,0.12 C 11.622,8.906 11.428,8.927 11.24,8.929 10.759,8.92 10.415,8.772 10.209,8.486 10.002,8.21 9.898,7.92 9.901,7.616 9.903,7.251 10.029,6.937 10.277,6.674 10.523,6.406 10.872,6.268 11.322,6.26 c 0.192,0.004 0.372,0.029 0.538,0.078 0.132,0.038 0.234,0.077 0.308,0.119 0.068,0.041 0.12,0.076 0.158,0.104 l -0.291,0.287 -0.123,0.03 0.087,-0.145 C 11.972,6.699 11.937,6.662 11.895,6.623 11.851,6.585 11.798,6.549 11.738,6.515 11.68,6.476 11.61,6.446 11.528,6.425 11.49,6.412 11.448,6.402 11.401,6.395 11.352,6.393 11.302,6.391 11.25,6.391 c -0.283,0.002 -0.513,0.1 -0.69,0.294 -0.185,0.194 -0.278,0.452 -0.281,0.775 0.002,0.353 0.114,0.657 0.335,0.913 0.218,0.267 0.52,0.404 0.905,0.411 0.112,0 0.201,-0.011 0.269,-0.034 0.068,-0.017 0.127,-0.035 0.176,-0.057 V 8.109 l -0.529,0.028 0.279,-0.155 h 0.745 l -0.094,0.09 C 12.344,8.087 12.333,8.107 12.33,8.13 12.325,8.185 12.323,8.243 12.323,8.304 v 0.443 z"
   id="path23"
   inkscape:connector-curvature="0"
   style="fill:#6c6d6d" />
		<path
   d="m 14.428,8.041 c 0,0.222 -0.076,0.421 -0.228,0.598 -0.152,0.18 -0.374,0.275 -0.664,0.283 C 13.258,8.917 13.046,8.825 12.901,8.646 12.753,8.473 12.68,8.279 12.68,8.065 12.682,7.818 12.767,7.612 12.936,7.445 13.102,7.276 13.32,7.19 13.59,7.185 c 0.262,0.005 0.467,0.092 0.614,0.26 0.147,0.167 0.222,0.366 0.224,0.596 z m -0.811,0.775 c 0.073,0 0.141,-0.017 0.204,-0.05 0.063,-0.032 0.114,-0.077 0.154,-0.135 0.042,-0.058 0.072,-0.123 0.088,-0.194 0.013,-0.07 0.019,-0.14 0.019,-0.211 C 14.084,8.047 14.042,7.852 13.955,7.641 13.91,7.539 13.85,7.456 13.775,7.392 13.698,7.329 13.606,7.297 13.499,7.294 13.376,7.296 13.271,7.338 13.181,7.418 13.118,7.481 13.075,7.55 13.052,7.626 c -0.024,0.077 -0.035,0.156 -0.033,0.236 0,0.089 0.013,0.187 0.04,0.295 0.021,0.107 0.055,0.211 0.105,0.313 0.049,0.1 0.112,0.181 0.187,0.243 0.072,0.069 0.16,0.103 0.266,0.103 z"
   id="path25"
   inkscape:connector-curvature="0"
   style="fill:#6c6d6d" />
		<path
   d="m 16.389,8.041 c 0,0.222 -0.076,0.421 -0.228,0.598 -0.152,0.18 -0.374,0.275 -0.664,0.283 C 15.219,8.917 15.007,8.825 14.862,8.646 14.714,8.473 14.641,8.279 14.641,8.065 c 0.002,-0.247 0.087,-0.453 0.256,-0.62 0.166,-0.169 0.384,-0.255 0.654,-0.26 0.262,0.005 0.467,0.092 0.614,0.26 0.147,0.167 0.222,0.366 0.224,0.596 z m -0.811,0.775 c 0.073,0 0.141,-0.017 0.204,-0.05 0.063,-0.032 0.114,-0.077 0.154,-0.135 0.042,-0.058 0.072,-0.123 0.088,-0.194 0.013,-0.07 0.019,-0.14 0.019,-0.211 C 16.045,8.047 16.003,7.852 15.916,7.641 15.871,7.539 15.811,7.456 15.736,7.392 15.659,7.329 15.567,7.297 15.46,7.294 15.337,7.296 15.232,7.338 15.142,7.418 15.079,7.481 15.036,7.55 15.013,7.626 14.989,7.703 14.978,7.782 14.98,7.862 c 0,0.089 0.013,0.187 0.04,0.295 0.021,0.107 0.055,0.211 0.105,0.313 0.049,0.1 0.112,0.181 0.187,0.243 0.072,0.069 0.16,0.103 0.266,0.103 z"
   id="path27"
   inkscape:connector-curvature="0"
   style="fill:#6c6d6d" />
		<path
   d="m 17.717,7.362 c 0.023,0.014 0.048,0.035 0.077,0.062 0.027,0.028 0.054,0.063 0.08,0.104 0.025,0.039 0.047,0.085 0.067,0.138 0.016,0.053 0.024,0.115 0.024,0.186 -0.002,0.13 -0.031,0.234 -0.086,0.312 -0.027,0.038 -0.056,0.073 -0.086,0.104 -0.034,0.032 -0.069,0.064 -0.107,0.097 -0.022,0.022 -0.042,0.048 -0.06,0.076 -0.022,0.03 -0.032,0.064 -0.032,0.103 0,0.038 0.011,0.069 0.033,0.094 0.019,0.024 0.037,0.044 0.055,0.062 l 0.123,0.101 c 0.076,0.063 0.144,0.132 0.201,0.207 0.054,0.077 0.083,0.177 0.085,0.301 0,0.176 -0.078,0.332 -0.233,0.467 -0.161,0.14 -0.393,0.213 -0.697,0.218 -0.254,-0.002 -0.444,-0.057 -0.569,-0.163 -0.126,-0.099 -0.19,-0.217 -0.19,-0.355 0,-0.067 0.021,-0.142 0.062,-0.224 0.04,-0.082 0.112,-0.155 0.217,-0.217 0.118,-0.067 0.241,-0.112 0.37,-0.134 C 17.179,8.882 17.286,8.872 17.37,8.869 17.344,8.835 17.321,8.798 17.3,8.759 17.276,8.721 17.264,8.675 17.264,8.622 17.264,8.59 17.269,8.563 17.278,8.542 17.286,8.519 17.293,8.499 17.3,8.48 17.259,8.485 17.22,8.487 17.183,8.487 16.99,8.485 16.843,8.424 16.741,8.305 16.635,8.194 16.582,8.065 16.582,7.917 c 0,-0.178 0.075,-0.34 0.225,-0.485 0.103,-0.085 0.21,-0.14 0.322,-0.166 0.11,-0.022 0.213,-0.034 0.31,-0.034 h 0.726 l -0.224,0.131 h -0.224 z m 0.14,2.089 c 0,-0.092 -0.03,-0.172 -0.09,-0.241 C 17.703,9.145 17.604,9.065 17.469,8.971 17.446,8.969 17.419,8.967 17.388,8.967 c -0.019,-0.002 -0.066,0 -0.142,0.007 -0.075,0.011 -0.152,0.028 -0.231,0.051 -0.019,0.007 -0.044,0.018 -0.078,0.032 -0.034,0.015 -0.068,0.037 -0.102,0.065 -0.034,0.029 -0.062,0.066 -0.085,0.11 -0.027,0.046 -0.04,0.102 -0.04,0.166 0,0.127 0.058,0.232 0.173,0.315 0.11,0.083 0.26,0.125 0.451,0.128 0.171,-0.002 0.302,-0.04 0.392,-0.113 0.087,-0.071 0.131,-0.164 0.131,-0.277 z M 17.351,8.387 C 17.447,8.383 17.526,8.349 17.59,8.284 17.621,8.238 17.64,8.191 17.649,8.142 17.654,8.094 17.657,8.053 17.657,8.02 17.657,7.877 17.62,7.733 17.547,7.587 17.513,7.517 17.468,7.461 17.411,7.417 17.354,7.376 17.288,7.354 17.214,7.351 17.116,7.353 17.034,7.393 16.969,7.47 16.914,7.55 16.888,7.64 16.89,7.74 c 0,0.131 0.038,0.268 0.115,0.41 0.037,0.066 0.085,0.122 0.144,0.169 0.059,0.045 0.127,0.068 0.202,0.068 z"
   id="path29"
   inkscape:connector-curvature="0"
   style="fill:#6c6d6d" />
		<path
   d="M 18.952,8.874 H 18.33 c 0.042,-0.053 0.07,-0.09 0.082,-0.111 0.009,-0.022 0.014,-0.05 0.014,-0.081 v -0.59 c 0,-0.307 0.005,-0.661 0.014,-1.062 0.007,-0.203 0.014,-0.398 0.021,-0.584 h -0.274 l 0.264,-0.131 h 0.502 C 18.902,6.345 18.864,6.372 18.84,6.398 18.817,6.423 18.802,6.467 18.795,6.529 18.771,6.824 18.76,7.236 18.762,7.765 v 0.838 c 0,0.066 0.01,0.111 0.029,0.135 0.021,0.022 0.058,0.036 0.111,0.041 0.061,0.005 0.121,0.011 0.18,0.018 l -0.13,0.077 z"
   id="path31"
   inkscape:connector-curvature="0"
   style="fill:#6c6d6d" />
		<path
   d="M 20.373,8.796 C 20.335,8.819 20.296,8.841 20.256,8.861 20.137,8.909 20.024,8.932 19.916,8.929 19.86,8.929 19.791,8.921 19.709,8.906 19.627,8.889 19.54,8.85 19.448,8.787 19.327,8.693 19.237,8.575 19.179,8.435 19.121,8.297 19.092,8.16 19.092,8.023 19.097,7.74 19.186,7.529 19.361,7.391 c 0.167,-0.137 0.345,-0.205 0.533,-0.205 0.131,0 0.252,0.034 0.362,0.101 0.087,0.06 0.148,0.123 0.184,0.19 0.033,0.067 0.054,0.124 0.063,0.17 L 19.679,7.99 19.408,8.013 c 0.049,0.229 0.141,0.407 0.274,0.533 0.13,0.13 0.28,0.195 0.449,0.195 0.091,0 0.171,-0.014 0.238,-0.042 0.067,-0.025 0.131,-0.053 0.19,-0.083 l -0.186,0.18 z M 20.042,7.716 C 20.111,7.696 20.145,7.663 20.145,7.617 20.143,7.54 20.108,7.469 20.042,7.405 19.977,7.341 19.895,7.308 19.797,7.306 c -0.035,0 -0.075,0.007 -0.119,0.02 -0.047,0.017 -0.092,0.044 -0.134,0.083 -0.042,0.038 -0.078,0.09 -0.107,0.156 -0.03,0.065 -0.045,0.147 -0.045,0.246 0,0.063 0.004,0.126 0.011,0.191 l 0.639,-0.286 z"
   id="path33"
   inkscape:connector-curvature="0"
   style="fill:#6c6d6d" />
	</g>
	<g
   id="g35">
		<path
   d="m 6.425,12.319 c 0,0.287 -0.082,0.507 -0.245,0.66 -0.164,0.153 -0.4,0.229 -0.709,0.229 H 4.977 v -1.745 h 0.548 c 0.285,0 0.506,0.075 0.664,0.226 0.157,0.15 0.236,0.36 0.236,0.63 z m -0.384,0.01 c 0,-0.375 -0.166,-0.562 -0.497,-0.562 H 5.347 v 1.136 h 0.159 c 0.356,0 0.535,-0.191 0.535,-0.574 z"
   id="path37"
   inkscape:connector-curvature="0"
   style="fill:#6c6d6d" />
		<path
   d="m 7.311,13.232 c -0.215,0 -0.383,-0.059 -0.504,-0.178 -0.121,-0.119 -0.181,-0.286 -0.181,-0.504 0,-0.224 0.056,-0.396 0.168,-0.519 0.112,-0.122 0.266,-0.183 0.464,-0.183 0.189,0 0.335,0.054 0.441,0.161 0.105,0.107 0.158,0.256 0.158,0.445 v 0.177 H 6.994 c 0.004,0.103 0.035,0.184 0.092,0.242 0.057,0.058 0.138,0.087 0.241,0.087 0.08,0 0.156,-0.008 0.228,-0.025 0.072,-0.017 0.146,-0.043 0.224,-0.08 v 0.282 c -0.064,0.032 -0.132,0.056 -0.204,0.071 -0.072,0.017 -0.16,0.024 -0.264,0.024 z M 7.259,12.108 c -0.077,0 -0.138,0.024 -0.181,0.073 C 7.034,12.23 7.009,12.3 7.003,12.39 H 7.514 C 7.512,12.3 7.489,12.231 7.444,12.182 7.398,12.132 7.336,12.108 7.259,12.108 z"
   id="path39"
   inkscape:connector-curvature="0"
   style="fill:#6c6d6d" />
		<path
   d="M 8.417,13.209 7.908,11.874 H 8.29 l 0.258,0.76 c 0.029,0.096 0.047,0.187 0.054,0.273 H 8.609 C 8.613,12.831 8.631,12.739 8.663,12.634 L 8.92,11.874 H 9.301 L 8.793,13.209 H 8.417 z"
   id="path41"
   inkscape:connector-curvature="0"
   style="fill:#6c6d6d" />
		<path
   d="M 10.043,13.232 C 9.828,13.232 9.66,13.173 9.539,13.054 9.418,12.935 9.358,12.768 9.358,12.55 c 0,-0.224 0.056,-0.396 0.168,-0.519 0.112,-0.123 0.266,-0.183 0.464,-0.183 0.189,0 0.335,0.054 0.441,0.161 0.105,0.107 0.158,0.256 0.158,0.445 v 0.177 H 9.727 c 0.004,0.103 0.035,0.184 0.092,0.242 0.057,0.058 0.138,0.087 0.241,0.087 0.08,0 0.156,-0.008 0.228,-0.025 0.072,-0.017 0.146,-0.043 0.224,-0.08 v 0.282 c -0.064,0.032 -0.132,0.056 -0.204,0.071 -0.072,0.017 -0.161,0.024 -0.265,0.024 z M 9.992,12.108 c -0.077,0 -0.138,0.024 -0.181,0.073 C 9.767,12.23 9.741,12.3 9.735,12.39 h 0.511 C 10.244,12.3 10.221,12.231 10.176,12.182 10.13,12.132 10.069,12.108 9.992,12.108 z"
   id="path43"
   inkscape:connector-curvature="0"
   style="fill:#6c6d6d" />
		<path
   d="m 11.196,13.209 h -0.364 v -1.857 h 0.364 v 1.857 z"
   id="path45"
   inkscape:connector-curvature="0"
   style="fill:#6c6d6d" />
		<path
   d="m 12.74,12.539 c 0,0.217 -0.057,0.387 -0.172,0.51 -0.115,0.123 -0.274,0.184 -0.479,0.184 -0.128,0 -0.241,-0.028 -0.339,-0.084 -0.098,-0.056 -0.173,-0.137 -0.226,-0.242 -0.053,-0.105 -0.079,-0.228 -0.079,-0.368 0,-0.218 0.057,-0.388 0.171,-0.509 0.114,-0.121 0.274,-0.181 0.48,-0.181 0.128,0 0.241,0.028 0.339,0.084 0.098,0.056 0.173,0.136 0.226,0.24 0.052,0.104 0.079,0.226 0.079,0.366 z m -0.923,0 c 0,0.132 0.022,0.232 0.065,0.3 0.043,0.068 0.114,0.102 0.212,0.102 0.097,0 0.167,-0.034 0.209,-0.101 0.043,-0.067 0.064,-0.167 0.064,-0.3 0,-0.132 -0.021,-0.231 -0.064,-0.297 -0.043,-0.066 -0.113,-0.099 -0.211,-0.099 -0.097,0 -0.167,0.033 -0.21,0.098 -0.044,0.065 -0.065,0.164 -0.065,0.297 z"
   id="path47"
   inkscape:connector-curvature="0"
   style="fill:#6c6d6d" />
		<path
   d="m 13.722,13.232 c -0.157,0 -0.28,-0.057 -0.369,-0.171 h -0.019 c 0.013,0.111 0.019,0.176 0.019,0.193 v 0.541 h -0.364 v -1.922 h 0.296 l 0.051,0.173 h 0.017 c 0.085,-0.132 0.211,-0.198 0.378,-0.198 0.158,0 0.281,0.061 0.37,0.183 0.089,0.122 0.134,0.291 0.134,0.507 0,0.142 -0.021,0.266 -0.063,0.371 -0.042,0.105 -0.101,0.185 -0.178,0.24 -0.077,0.056 -0.168,0.083 -0.272,0.083 z M 13.615,12.14 c -0.09,0 -0.156,0.028 -0.197,0.083 -0.041,0.055 -0.063,0.147 -0.065,0.274 v 0.039 c 0,0.143 0.021,0.246 0.064,0.308 0.043,0.062 0.11,0.093 0.202,0.093 0.163,0 0.245,-0.134 0.245,-0.403 0,-0.131 -0.02,-0.23 -0.06,-0.295 -0.04,-0.066 -0.103,-0.099 -0.189,-0.099 z"
   id="path49"
   inkscape:connector-curvature="0"
   style="fill:#6c6d6d" />
		<path
   d="m 15.089,13.232 c -0.215,0 -0.383,-0.059 -0.504,-0.178 -0.121,-0.119 -0.181,-0.286 -0.181,-0.504 0,-0.224 0.056,-0.396 0.168,-0.519 0.112,-0.123 0.266,-0.183 0.464,-0.183 0.189,0 0.335,0.054 0.441,0.161 0.105,0.107 0.158,0.256 0.158,0.445 v 0.177 h -0.861 c 0.004,0.103 0.035,0.184 0.092,0.242 0.057,0.058 0.138,0.087 0.241,0.087 0.08,0 0.156,-0.008 0.228,-0.025 0.072,-0.017 0.146,-0.043 0.224,-0.08 v 0.282 c -0.064,0.032 -0.132,0.056 -0.204,0.071 -0.073,0.017 -0.162,0.024 -0.266,0.024 z m -0.051,-1.124 c -0.077,0 -0.138,0.024 -0.181,0.073 -0.044,0.049 -0.069,0.118 -0.075,0.208 h 0.511 c -0.002,-0.09 -0.025,-0.159 -0.07,-0.208 -0.047,-0.049 -0.108,-0.073 -0.185,-0.073 z"
   id="path51"
   inkscape:connector-curvature="0"
   style="fill:#6c6d6d" />
		<path
   d="m 16.623,11.849 c 0.049,0 0.09,0.004 0.123,0.011 l -0.027,0.341 c -0.029,-0.008 -0.065,-0.012 -0.107,-0.012 -0.116,0 -0.207,0.03 -0.272,0.089 -0.065,0.06 -0.097,0.143 -0.097,0.251 v 0.679 h -0.364 v -1.335 h 0.276 l 0.054,0.224 h 0.018 c 0.041,-0.075 0.097,-0.135 0.168,-0.181 0.069,-0.044 0.145,-0.067 0.228,-0.067 z"
   id="path53"
   inkscape:connector-curvature="0"
   style="fill:#6c6d6d" />
		<path
   d="m 18.554,13.209 h -1.005 v -1.745 h 1.005 v 0.303 h -0.635 v 0.383 h 0.591 v 0.303 h -0.591 v 0.45 h 0.635 v 0.306 z"
   id="path55"
   inkscape:connector-curvature="0"
   style="fill:#6c6d6d" />
		<path
   d="m 19.112,12.527 -0.43,-0.653 h 0.413 l 0.259,0.425 0.261,-0.425 h 0.413 l -0.435,0.653 0.455,0.682 h -0.414 l -0.281,-0.457 -0.282,0.457 h -0.413 l 0.454,-0.682 z"
   id="path57"
   inkscape:connector-curvature="0"
   style="fill:#6c6d6d" />
		<path
   d="m 20.933,13.232 c -0.157,0 -0.28,-0.057 -0.369,-0.171 h -0.019 c 0.013,0.111 0.019,0.176 0.019,0.193 v 0.541 H 20.2 v -1.922 h 0.296 l 0.051,0.173 h 0.017 c 0.085,-0.132 0.211,-0.198 0.378,-0.198 0.158,0 0.281,0.061 0.37,0.183 0.089,0.122 0.134,0.291 0.134,0.507 0,0.142 -0.021,0.266 -0.063,0.371 -0.042,0.105 -0.101,0.185 -0.178,0.24 -0.077,0.056 -0.167,0.083 -0.272,0.083 z M 20.826,12.14 c -0.09,0 -0.156,0.028 -0.197,0.083 -0.041,0.055 -0.063,0.147 -0.065,0.274 v 0.039 c 0,0.143 0.021,0.246 0.064,0.308 0.043,0.062 0.11,0.093 0.202,0.093 0.163,0 0.245,-0.134 0.245,-0.403 0,-0.131 -0.02,-0.23 -0.06,-0.295 -0.04,-0.066 -0.103,-0.099 -0.189,-0.099 z"
   id="path59"
   inkscape:connector-curvature="0"
   style="fill:#6c6d6d" />
		<path
   d="m 22.3,13.232 c -0.215,0 -0.383,-0.059 -0.504,-0.178 -0.121,-0.119 -0.181,-0.286 -0.181,-0.504 0,-0.224 0.056,-0.396 0.168,-0.519 0.112,-0.123 0.266,-0.183 0.464,-0.183 0.189,0 0.335,0.054 0.441,0.161 0.105,0.107 0.158,0.256 0.158,0.445 v 0.177 h -0.861 c 0.004,0.103 0.035,0.184 0.092,0.242 0.057,0.058 0.138,0.087 0.241,0.087 0.08,0 0.156,-0.008 0.228,-0.025 0.072,-0.017 0.146,-0.043 0.224,-0.08 v 0.282 c -0.064,0.032 -0.132,0.056 -0.204,0.071 -0.073,0.017 -0.161,0.024 -0.266,0.024 z m -0.051,-1.124 c -0.077,0 -0.138,0.024 -0.181,0.073 -0.044,0.049 -0.069,0.118 -0.075,0.208 h 0.511 c -0.002,-0.09 -0.025,-0.159 -0.07,-0.208 -0.047,-0.049 -0.108,-0.073 -0.185,-0.073 z"
   id="path61"
   inkscape:connector-curvature="0"
   style="fill:#6c6d6d" />
		<path
   d="m 23.834,11.849 c 0.049,0 0.09,0.004 0.123,0.011 l -0.027,0.341 c -0.029,-0.008 -0.065,-0.012 -0.107,-0.012 -0.116,0 -0.207,0.03 -0.272,0.089 -0.065,0.06 -0.097,0.143 -0.097,0.251 v 0.679 H 23.09 v -1.335 h 0.276 l 0.054,0.224 h 0.018 c 0.041,-0.075 0.097,-0.135 0.168,-0.181 0.069,-0.044 0.145,-0.067 0.228,-0.067 z"
   id="path63"
   inkscape:connector-curvature="0"
   style="fill:#6c6d6d" />
		<path
   d="m 24.71,12.942 c 0.064,0 0.14,-0.014 0.229,-0.042 v 0.271 c -0.091,0.041 -0.202,0.061 -0.334,0.061 -0.146,0 -0.252,-0.037 -0.318,-0.11 -0.066,-0.074 -0.1,-0.184 -0.1,-0.331 v -0.643 h -0.174 v -0.154 l 0.201,-0.122 0.105,-0.282 h 0.233 v 0.284 h 0.374 v 0.273 h -0.374 v 0.643 c 0,0.052 0.014,0.09 0.044,0.115 0.028,0.025 0.067,0.037 0.114,0.037 z"
   id="path65"
   inkscape:connector-curvature="0"
   style="fill:#6c6d6d" />
	</g>
	<g
   id="layer2"
   label="shadow"
   groupmode="layer">
		<g
   id="_x23_d43f36ff"
   transform="translate(0,-3.3300938e-6)">
			<g
   id="path6">
				<path
   connector-curvature="0"
   nodetypes="cccccccc"
   d="m 13.52,14.553 c -0.176,-0.002 -0.328,0.122 -0.403,0.275 -0.146,0.245 -0.293,0.49 -0.44,0.736 0.176,0.464 0.459,0.882 0.738,1.288 0.013,-0.113 0.029,-0.239 0.1,-0.333 0.362,-0.591 0.723,-1.181 1.085,-1.772 0.079,-0.095 -0.007,-0.214 -0.121,-0.197 -0.32,-0.001 -0.639,0.002 -0.959,0.003 z"
   id="path70"
   inkscape:connector-curvature="0"
   style="fill:#d43f36" />
			</g>
		</g>
		<g
   id="path9">
			<path
   connector-curvature="0"
   nodetypes="ccccccccccc"
   d="m 15.123,14.616 c 0.032,-0.073 0.124,-0.058 0.188,-0.063 l 0.914,0.002 c 0.147,-10e-4 0.288,0.083 0.363,0.208 l 1.097,1.786 c 0.086,0.129 0.087,0.307 0,0.436 -0.21,0.334 -0.408,0.676 -0.623,1.006 -0.023,-0.125 -0.059,-0.25 -0.131,-0.356 C 16.72,17.31 16.53,16.973 16.318,16.648 L 15.167,14.79 C 15.137,14.737 15.1,14.677 15.123,14.616 z"
   id="path73"
   inkscape:connector-curvature="0"
   style="fill:#0f9d56" />
		</g>
		<g
   id="_x23_4585f4ff"
   transform="translate(0,-3.3300938e-6)">
			<g
   id="path15">
				<path
   connector-curvature="0"
   nodetypes="ccccccccc"
   d="m 12.678,15.564 c 0.255,0.452 0.489,0.916 0.78,1.347 0.377,0.617 0.753,1.234 1.13,1.85 0.112,0.155 -0.037,0.222 -0.183,0.222 -0.303,-0.001 -0.607,0.002 -0.91,-0.003 -0.164,-0.009 -0.299,-0.122 -0.37,-0.265 -0.36,-0.585 -0.721,-1.17 -1.08,-1.756 -0.079,-0.137 -0.06,-0.311 0.036,-0.433 0.2,-0.322 0.398,-0.642 0.597,-0.962 z"
   id="path77"
   inkscape:connector-curvature="0"
   style="fill:#557ebe" />
			</g>
		</g>
		<g
   id="_x23_e9b641ff"
   transform="translate(0,-3.3300938e-6)">
			<g
   id="path18">
				<path
   connector-curvature="0"
   nodetypes="ccccccccc"
   d="m 16.318,16.647 c 0.01,0.129 -0.01,0.263 -0.089,0.369 -0.36,0.589 -0.723,1.176 -1.081,1.766 -0.064,0.097 0.009,0.194 0.115,0.191 l 0.982,0.005 c 0.171,-0.006 0.32,-0.123 0.391,-0.275 0.138,-0.24 0.284,-0.475 0.426,-0.712 -0.022,-0.156 -0.089,-0.3 -0.177,-0.429 -0.188,-0.305 -0.377,-0.61 -0.567,-0.915 z"
   id="path81"
   inkscape:connector-curvature="0"
   style="fill:#f6c540" />
			</g>
		</g>
		<g
   id="_x23_e9b641ff-0">
			<g
   id="path18-5">
				<g
   id="g85">
					<defs
   id="defs87">
						<path
   id="SVGID_1_"
   connector-curvature="0"
   nodetypes="ccccccc"
   d="m 16.318,16.648 c 0.211,0.325 0.402,0.662 0.613,0.987 0.072,0.106 0.108,0.231 0.131,0.356 l -0.054,0.091 -0.94,-0.74 c 0.049,-0.087 0.148,-0.294 0.197,-0.382 0.055,-0.094 0.057,-0.207 0.053,-0.312 l 0,0 z"
   inkscape:connector-curvature="0" />
					</defs>
					<clipPath
   id="SVGID_2_">
						<use
   xlink:href="#SVGID_1_"
   overflow="visible"
   id="use91"
   style="overflow:visible"
   x="0"
   y="0"
   width="30"
   height="30" />
					</clipPath>
					<rect
   x="16.068001"
   y="16.648001"
   clip-path="url(#SVGID_2_)"
   width="0.995"
   height="1.434"
   id="rect93"
   style="fill:#f6c540" />
					<path
   clip-path="url(#SVGID_2_)"
   d="M 17.147,17.599 V 17.22 h 0.269 c -0.13,-0.103 -0.266,-0.181 -0.401,-0.232 -0.269,-0.102 -0.533,-0.094 -0.726,0.047 -0.387,0.283 -0.348,0.995 0.088,1.589 v -0.459 h 0.77 v -0.566 z"
   id="path95"
   inkscape:connector-curvature="0"
   style="fill:#f6c540" />
					<path
   clip-path="url(#SVGID_2_)"
   d="m 17.147,17.618 v -0.365 h 0.257 c -0.125,-0.099 -0.256,-0.175 -0.386,-0.224 -0.26,-0.098 -0.514,-0.091 -0.7,0.046 -0.373,0.273 -0.335,0.959 0.084,1.532 v -0.441 h 0.745 v -0.548 z"
   id="path97"
   inkscape:connector-curvature="0"
   style="fill:#f5c440" />
					<path
   clip-path="url(#SVGID_2_)"
   d="m 17.728,17.636 c -0.404,-0.552 -1.023,-0.786 -1.382,-0.523 -0.359,0.263 -0.323,0.924 0.081,1.476 v -0.423 h 0.72 v -0.53 h 0.581 z"
   id="path99"
   inkscape:connector-curvature="0"
   style="fill:#f4c340" />
					<path
   clip-path="url(#SVGID_2_)"
   d="m 17.703,17.654 c -0.389,-0.531 -0.984,-0.756 -1.329,-0.503 -0.345,0.253 -0.31,0.888 0.078,1.419 v -0.404 h 0.695 v -0.511 h 0.556 z"
   id="path101"
   inkscape:connector-curvature="0"
   style="fill:#f3c23f" />
					<path
   clip-path="url(#SVGID_2_)"
   d="m 17.678,17.673 c -0.373,-0.509 -0.944,-0.726 -1.276,-0.483 -0.332,0.243 -0.298,0.853 0.075,1.362 v -0.386 h 0.67 v -0.493 h 0.531 z"
   id="path103"
   inkscape:connector-curvature="0"
   style="fill:#f2c13f" />
					<path
   clip-path="url(#SVGID_2_)"
   d="m 17.653,17.691 c -0.357,-0.488 -0.905,-0.695 -1.223,-0.463 -0.318,0.233 -0.286,0.817 0.072,1.305 v -0.368 h 0.645 V 17.69 h 0.506 z"
   id="path105"
   inkscape:connector-curvature="0"
   style="fill:#f1c03f" />
					<path
   clip-path="url(#SVGID_2_)"
   d="m 17.628,17.709 c -0.342,-0.467 -0.866,-0.665 -1.169,-0.443 -0.304,0.223 -0.273,0.782 0.069,1.249 v -0.349 h 0.62 V 17.71 h 0.48 z"
   id="path107"
   inkscape:connector-curvature="0"
   style="fill:#f0bf3f" />
					<path
   clip-path="url(#SVGID_2_)"
   d="m 17.603,17.728 c -0.326,-0.446 -0.826,-0.635 -1.116,-0.423 -0.29,0.212 -0.261,0.746 0.066,1.192 v -0.331 h 0.595 v -0.438 h 0.455 z"
   id="path109"
   inkscape:connector-curvature="0"
   style="fill:#efbf3e" />
					<path
   clip-path="url(#SVGID_2_)"
   d="m 17.578,17.746 c -0.311,-0.425 -0.787,-0.605 -1.063,-0.402 -0.276,0.202 -0.248,0.71 0.063,1.135 v -0.313 h 0.57 v -0.42 h 0.43 z"
   id="path111"
   inkscape:connector-curvature="0"
   style="fill:#eebe3e" />
					<path
   clip-path="url(#SVGID_2_)"
   d="m 17.553,17.764 c -0.295,-0.403 -0.747,-0.574 -1.01,-0.382 -0.262,0.192 -0.236,0.675 0.059,1.078 v -0.294 h 0.545 v -0.402 h 0.406 z"
   id="path113"
   inkscape:connector-curvature="0"
   style="fill:#edbd3e" />
					<path
   clip-path="url(#SVGID_2_)"
   d="M 17.528,17.782 C 17.248,17.4 16.82,17.238 16.571,17.42 c -0.249,0.182 -0.223,0.639 0.056,1.022 v -0.276 h 0.52 v -0.383 h 0.381 z"
   id="path115"
   inkscape:connector-curvature="0"
   style="fill:#ecbc3e" />
					<path
   clip-path="url(#SVGID_2_)"
   d="m 17.503,17.801 c -0.264,-0.361 -0.669,-0.514 -0.904,-0.342 -0.235,0.172 -0.211,0.604 0.053,0.965 v -0.258 h 0.495 v -0.365 h 0.356 z"
   id="path117"
   inkscape:connector-curvature="0"
   style="fill:#ebbb3e" />
					<path
   clip-path="url(#SVGID_2_)"
   d="m 17.478,17.819 c -0.249,-0.34 -0.629,-0.484 -0.851,-0.322 -0.221,0.162 -0.199,0.568 0.05,0.908 v -0.24 h 0.469 v -0.347 h 0.332 z"
   id="path119"
   inkscape:connector-curvature="0"
   style="fill:#eaba3d" />
					<path
   clip-path="url(#SVGID_2_)"
   d="m 17.453,17.837 c -0.233,-0.318 -0.59,-0.454 -0.797,-0.302 -0.207,0.152 -0.186,0.533 0.047,0.851 v -0.221 h 0.444 v -0.328 h 0.306 z"
   id="path121"
   inkscape:connector-curvature="0"
   style="fill:#e9b93d" />
					<path
   clip-path="url(#SVGID_2_)"
   d="m 17.428,17.856 c -0.218,-0.297 -0.551,-0.423 -0.744,-0.282 -0.193,0.142 -0.174,0.497 0.044,0.795 v -0.203 h 0.419 v -0.31 h 0.281 z"
   id="path123"
   inkscape:connector-curvature="0"
   style="fill:#e7b83d" />
					<path
   clip-path="url(#SVGID_2_)"
   d="m 17.403,17.874 c -0.202,-0.276 -0.511,-0.393 -0.691,-0.262 -0.18,0.131 -0.161,0.462 0.041,0.738 v -0.185 h 0.394 v -0.292 h 0.256 z"
   id="path125"
   inkscape:connector-curvature="0"
   style="fill:#e6b73d" />
					<path
   clip-path="url(#SVGID_2_)"
   d="m 17.378,17.892 c -0.187,-0.255 -0.472,-0.363 -0.638,-0.241 -0.166,0.121 -0.149,0.426 0.038,0.681 v -0.166 h 0.369 v -0.273 h 0.231 z"
   id="path127"
   inkscape:connector-curvature="0"
   style="fill:#e5b63c" />
					<path
   clip-path="url(#SVGID_2_)"
   d="m 17.353,17.911 c -0.171,-0.234 -0.433,-0.333 -0.585,-0.221 -0.152,0.111 -0.137,0.391 0.034,0.624 v -0.148 h 0.344 v -0.255 h 0.207 z"
   id="path129"
   inkscape:connector-curvature="0"
   style="fill:#e4b53c" />
					<path
   clip-path="url(#SVGID_2_)"
   d="m 17.328,17.929 c -0.155,-0.212 -0.393,-0.302 -0.532,-0.201 -0.138,0.101 -0.124,0.355 0.031,0.568 v -0.13 h 0.319 v -0.237 h 0.182 z"
   id="path131"
   inkscape:connector-curvature="0"
   style="fill:#e3b43c" />
					<path
   clip-path="url(#SVGID_2_)"
   d="m 17.303,17.947 c -0.14,-0.191 -0.354,-0.272 -0.478,-0.181 -0.124,0.091 -0.112,0.32 0.028,0.511 v -0.111 h 0.294 v -0.218 h 0.156 z"
   id="path133"
   inkscape:connector-curvature="0"
   style="fill:#e2b33c" />
					<path
   clip-path="url(#SVGID_2_)"
   d="m 17.278,17.966 c -0.124,-0.17 -0.315,-0.242 -0.425,-0.161 -0.111,0.081 -0.099,0.284 0.025,0.454 v -0.093 h 0.269 v -0.2 h 0.131 z"
   id="path135"
   inkscape:connector-curvature="0"
   style="fill:#e1b23c" />
					<path
   clip-path="url(#SVGID_2_)"
   d="m 17.253,17.984 c -0.109,-0.149 -0.275,-0.212 -0.372,-0.141 -0.097,0.071 -0.087,0.249 0.022,0.397 v -0.075 h 0.244 v -0.182 h 0.106 z"
   id="path137"
   inkscape:connector-curvature="0"
   style="fill:#e0b23b" />
					<path
   clip-path="url(#SVGID_2_)"
   d="m 17.228,18.002 c -0.093,-0.127 -0.236,-0.181 -0.319,-0.121 -0.083,0.06 -0.074,0.213 0.019,0.341 v -0.056 h 0.219 v -0.163 h 0.081 z"
   id="path139"
   inkscape:connector-curvature="0"
   style="fill:#dfb13b" />
					<path
   clip-path="url(#SVGID_2_)"
   d="m 17.203,18.021 c -0.078,-0.106 -0.197,-0.151 -0.266,-0.101 -0.069,0.051 -0.062,0.178 0.016,0.284 v -0.038 h 0.194 v -0.145 h 0.056 z"
   id="path141"
   inkscape:connector-curvature="0"
   style="fill:#deb03b" />
					<path
   clip-path="url(#SVGID_2_)"
   d="m 17.178,18.039 c -0.062,-0.085 -0.157,-0.121 -0.213,-0.08 -0.055,0.04 -0.05,0.142 0.013,0.227 v -0.02 h 0.169 v -0.127 h 0.031 z"
   id="path143"
   inkscape:connector-curvature="0"
   style="fill:#ddaf3b" />
					<path
   clip-path="url(#SVGID_2_)"
   d="m 17.152,18.057 c -0.047,-0.064 -0.118,-0.091 -0.159,-0.06 -0.041,0.03 -0.037,0.107 0.009,0.17 v -0.001 h 0.144 v -0.108 h 0.006 z"
   id="path145"
   inkscape:connector-curvature="0"
   style="fill:#dcae3a" />
					
						<ellipse
   transform="matrix(0.8068,-0.5908,0.5908,0.8068,-7.4014,13.5872)"
   clip-path="url(#SVGID_2_)"
   cx="17.077"
   cy="18.112"
   rx="0.061999999"
   ry="0.094999999"
   id="ellipse147"
   d="m 17.139,18.112 c 0,0.05247 -0.02776,0.095 -0.062,0.095 -0.03424,0 -0.062,-0.04253 -0.062,-0.095 0,-0.05247 0.02776,-0.095 0.062,-0.095 0.03424,0 0.062,0.04253 0.062,0.095 z"
   sodipodi:cx="17.077"
   sodipodi:cy="18.112"
   sodipodi:rx="0.061999999"
   sodipodi:ry="0.094999999"
   style="fill:#dbad3a" />
					
						<ellipse
   transform="matrix(0.8068,-0.5908,0.5908,0.8068,-7.4014,13.5872)"
   clip-path="url(#SVGID_2_)"
   cx="17.077"
   cy="18.112"
   rx="0.030999999"
   ry="0.048"
   id="ellipse149"
   d="m 17.108,18.112 c 0,0.02651 -0.01388,0.048 -0.031,0.048 -0.01712,0 -0.031,-0.02149 -0.031,-0.048 0,-0.02651 0.01388,-0.048 0.031,-0.048 0.01712,0 0.031,0.02149 0.031,0.048 z"
   sodipodi:cx="17.077"
   sodipodi:cy="18.112"
   sodipodi:rx="0.030999999"
   sodipodi:ry="0.048"
   style="fill:#daac3a" />
				</g>
			</g>
		</g>
		<g
   id="_x23_c44034ff-8">
		</g>
		<g
   id="path12-7">
			<g
   id="g153">
				<defs
   id="defs155">
					<path
   id="SVGID_3_"
   connector-curvature="0"
   nodetypes="ccccccc"
   d="m 12.771,15.408 c 0.313,0.249 0.627,0.498 0.94,0.747 -0.098,0.211 -0.246,0.403 -0.287,0.637 -0.002,0.044 -0.014,0.048 -0.034,0.006 -0.204,-0.32 -0.403,-0.628 -0.606,-0.949 -0.051,-0.089 -0.081,-0.188 -0.106,-0.287 0.031,-0.05 0.062,-0.102 0.093,-0.154 z"
   inkscape:connector-curvature="0" />
				</defs>
				<clipPath
   id="SVGID_4_">
					<use
   xlink:href="#SVGID_3_"
   overflow="visible"
   id="use159"
   style="overflow:visible"
   x="0"
   y="0"
   width="30"
   height="30" />
				</clipPath>
				<rect
   x="12.678"
   y="15.408"
   clip-path="url(#SVGID_4_)"
   width="1.033"
   height="1.433"
   id="rect161"
   style="fill:#d43f36" />
				<path
   clip-path="url(#SVGID_4_)"
   d="m 13.439,16.483 c 0.3,-0.247 0.176,-0.892 -0.276,-1.44 v 0.281 h -0.569 v 0.615 h -0.517 c 0.452,0.548 1.062,0.792 1.362,0.544 z"
   id="path163"
   inkscape:connector-curvature="0"
   style="fill:#d43f36" />
				<path
   clip-path="url(#SVGID_4_)"
   d="m 13.411,16.45 c 0.29,-0.239 0.17,-0.863 -0.267,-1.392 v 0.266 h -0.551 v 0.6 h -0.498 c 0.437,0.53 1.026,0.765 1.316,0.526 z"
   id="path165"
   inkscape:connector-curvature="0"
   style="fill:#d33f36" />
				<path
   clip-path="url(#SVGID_4_)"
   d="m 13.384,16.417 c 0.28,-0.231 0.164,-0.833 -0.258,-1.344 v 0.251 h -0.533 v 0.585 h -0.48 c 0.422,0.512 0.991,0.739 1.271,0.508 z"
   id="path167"
   inkscape:connector-curvature="0"
   style="fill:#d23f36" />
				<path
   clip-path="url(#SVGID_4_)"
   d="m 13.357,16.384 c 0.27,-0.223 0.158,-0.803 -0.249,-1.296 v 0.236 h -0.515 v 0.57 h -0.462 c 0.407,0.493 0.956,0.713 1.226,0.49 z"
   id="path169"
   inkscape:connector-curvature="0"
   style="fill:#d13e36" />
				<path
   clip-path="url(#SVGID_4_)"
   d="m 13.329,16.351 c 0.26,-0.214 0.153,-0.773 -0.239,-1.248 v 0.221 h -0.497 v 0.555 h -0.444 c 0.392,0.475 0.921,0.686 1.18,0.472 z"
   id="path171"
   inkscape:connector-curvature="0"
   style="fill:#d03e36" />
				<path
   clip-path="url(#SVGID_4_)"
   d="m 13.302,16.318 c 0.25,-0.206 0.147,-0.744 -0.23,-1.2 v 0.206 h -0.478 v 0.54 h -0.426 c 0.376,0.457 0.884,0.66 1.134,0.454 z"
   id="path173"
   inkscape:connector-curvature="0"
   style="fill:#cf3e35" />
				<path
   clip-path="url(#SVGID_4_)"
   d="m 13.275,16.285 c 0.24,-0.198 0.141,-0.714 -0.221,-1.152 v 0.191 h -0.46 v 0.526 h -0.408 c 0.361,0.438 0.849,0.633 1.089,0.435 z"
   id="path175"
   inkscape:connector-curvature="0"
   style="fill:#ce3e35" />
				<path
   clip-path="url(#SVGID_4_)"
   d="m 13.247,16.252 c 0.23,-0.19 0.135,-0.684 -0.212,-1.104 v 0.176 h -0.442 v 0.511 h -0.39 c 0.347,0.42 0.815,0.606 1.044,0.417 z"
   id="path177"
   inkscape:connector-curvature="0"
   style="fill:#cd3e35" />
				<path
   clip-path="url(#SVGID_4_)"
   d="m 13.22,16.219 c 0.22,-0.181 0.129,-0.654 -0.203,-1.056 v 0.161 h -0.424 v 0.496 h -0.372 c 0.332,0.401 0.779,0.58 0.999,0.399 z"
   id="path179"
   inkscape:connector-curvature="0"
   style="fill:#cc3e35" />
				<path
   clip-path="url(#SVGID_4_)"
   d="M 13.193,16.185 C 13.403,16.012 13.316,15.56 13,15.177 v 0.147 h -0.406 v 0.481 H 12.24 c 0.316,0.383 0.743,0.554 0.953,0.38 z"
   id="path181"
   inkscape:connector-curvature="0"
   style="fill:#cb3d35" />
				<path
   clip-path="url(#SVGID_4_)"
   d="m 13.166,16.152 c 0.2,-0.165 0.117,-0.595 -0.184,-0.96 v 0.132 h -0.388 v 0.466 h -0.336 c 0.301,0.365 0.708,0.527 0.908,0.362 z"
   id="path183"
   inkscape:connector-curvature="0"
   style="fill:#ca3d35" />
				<path
   clip-path="url(#SVGID_4_)"
   d="m 13.138,16.119 c 0.19,-0.157 0.112,-0.565 -0.175,-0.912 v 0.117 h -0.37 v 0.451 h -0.318 c 0.287,0.347 0.673,0.501 0.863,0.344 z"
   id="path185"
   inkscape:connector-curvature="0"
   style="fill:#c93d35" />
				<path
   clip-path="url(#SVGID_4_)"
   d="m 13.111,16.086 c 0.18,-0.148 0.106,-0.535 -0.166,-0.864 v 0.102 h -0.352 v 0.436 h -0.299 c 0.271,0.329 0.637,0.475 0.817,0.326 z"
   id="path187"
   inkscape:connector-curvature="0"
   style="fill:#c83d35" />
				<path
   clip-path="url(#SVGID_4_)"
   d="m 13.084,16.053 c 0.17,-0.14 0.1,-0.506 -0.157,-0.816 v 0.087 h -0.334 v 0.421 h -0.281 c 0.256,0.31 0.602,0.448 0.772,0.308 z"
   id="path189"
   inkscape:connector-curvature="0"
   style="fill:#c73d35" />
				<path
   clip-path="url(#SVGID_4_)"
   d="m 13.056,16.02 c 0.16,-0.132 0.094,-0.476 -0.147,-0.768 v 0.072 H 12.593 V 15.73 H 12.33 c 0.241,0.292 0.567,0.422 0.726,0.29 z"
   id="path191"
   inkscape:connector-curvature="0"
   style="fill:#c63d35" />
				<path
   clip-path="url(#SVGID_4_)"
   d="m 13.029,15.987 c 0.15,-0.124 0.088,-0.446 -0.138,-0.72 v 0.057 h -0.298 v 0.391 h -0.245 c 0.226,0.274 0.531,0.396 0.681,0.272 z"
   id="path193"
   inkscape:connector-curvature="0"
   style="fill:#c43c34" />
				<path
   clip-path="url(#SVGID_4_)"
   d="m 13.002,15.954 c 0.14,-0.115 0.082,-0.416 -0.129,-0.672 v 0.042 H 12.594 V 15.7 h -0.227 c 0.21,0.256 0.495,0.369 0.635,0.254 z"
   id="path195"
   inkscape:connector-curvature="0"
   style="fill:#c33c34" />
				<path
   clip-path="url(#SVGID_4_)"
   d="m 12.974,15.921 c 0.13,-0.107 0.076,-0.387 -0.12,-0.624 v 0.027 h -0.261 v 0.361 h -0.209 c 0.196,0.238 0.461,0.343 0.59,0.236 z"
   id="path197"
   inkscape:connector-curvature="0"
   style="fill:#c23c34" />
				<path
   clip-path="url(#SVGID_4_)"
   d="m 12.947,15.888 c 0.12,-0.099 0.07,-0.357 -0.11,-0.576 v 0.012 h -0.243 v 0.346 h -0.191 c 0.18,0.219 0.424,0.317 0.544,0.218 z"
   id="path199"
   inkscape:connector-curvature="0"
   style="fill:#c13c34" />
				<path
   clip-path="url(#SVGID_4_)"
   d="m 12.92,15.855 c 0.11,-0.091 0.065,-0.327 -0.101,-0.528 -0.166,-0.201 -0.389,-0.29 -0.499,-0.2 l 0.274,0.197 v 0.331 h -0.173 c 0.165,0.201 0.389,0.29 0.499,0.2 z"
   id="path201"
   inkscape:connector-curvature="0"
   style="fill:#c03c34" />
				<path
   clip-path="url(#SVGID_4_)"
   d="m 12.893,15.822 c 0.1,-0.082 0.059,-0.297 -0.092,-0.48 -0.151,-0.183 -0.354,-0.264 -0.454,-0.181 l 0.247,0.164 v 0.316 h -0.155 c 0.15,0.182 0.354,0.263 0.454,0.181 z"
   id="path203"
   inkscape:connector-curvature="0"
   style="fill:#bf3c34" />
				<path
   clip-path="url(#SVGID_4_)"
   d="m 12.865,15.789 c 0.09,-0.074 0.053,-0.268 -0.083,-0.432 -0.136,-0.164 -0.319,-0.237 -0.409,-0.163 l 0.22,0.131 v 0.302 h -0.137 c 0.136,0.163 0.319,0.236 0.409,0.162 z"
   id="path205"
   inkscape:connector-curvature="0"
   style="fill:#be3b34" />
				<path
   clip-path="url(#SVGID_4_)"
   d="m 12.838,15.756 c 0.08,-0.066 0.047,-0.238 -0.074,-0.384 -0.121,-0.146 -0.283,-0.211 -0.363,-0.145 l 0.192,0.097 v 0.287 h -0.119 c 0.121,0.146 0.284,0.211 0.364,0.145 z"
   id="path207"
   inkscape:connector-curvature="0"
   style="fill:#bd3b34" />
				<path
   clip-path="url(#SVGID_4_)"
   d="m 12.811,15.722 c 0.07,-0.058 0.041,-0.208 -0.064,-0.336 -0.106,-0.128 -0.248,-0.185 -0.318,-0.127 l 0.165,0.064 v 0.272 h -0.1 c 0.104,0.128 0.247,0.185 0.317,0.127 z"
   id="path209"
   inkscape:connector-curvature="0"
   style="fill:#bc3b34" />
				<path
   clip-path="url(#SVGID_4_)"
   d="m 12.783,15.689 c 0.06,-0.049 0.035,-0.178 -0.055,-0.288 -0.09,-0.11 -0.212,-0.158 -0.272,-0.109 l 0.138,0.031 v 0.257 h -0.082 c 0.09,0.11 0.211,0.159 0.271,0.109 z"
   id="path211"
   inkscape:connector-curvature="0"
   style="fill:#bb3b34" />
				<path
   clip-path="url(#SVGID_4_)"
   d="m 12.756,15.656 c 0.05,-0.041 0.029,-0.149 -0.046,-0.24 -0.075,-0.091 -0.177,-0.132 -0.227,-0.091 h 0.11 v 0.24 h -0.064 c 0.076,0.092 0.177,0.133 0.227,0.091 z"
   id="path213"
   inkscape:connector-curvature="0"
   style="fill:#ba3b33" />
				<path
   clip-path="url(#SVGID_4_)"
   d="m 12.729,15.623 c 0.04,-0.033 0.023,-0.119 -0.037,-0.192 -0.06,-0.073 -0.142,-0.106 -0.182,-0.073 h 0.083 v 0.192 h -0.046 c 0.061,0.074 0.142,0.106 0.182,0.073 z"
   id="path215"
   inkscape:connector-curvature="0"
   style="fill:#b93b33" />
				<path
   clip-path="url(#SVGID_4_)"
   d="m 12.701,15.59 c 0.03,-0.025 0.018,-0.089 -0.028,-0.144 -0.045,-0.055 -0.106,-0.079 -0.136,-0.054 h 0.056 v 0.144 h -0.028 c 0.046,0.055 0.107,0.079 0.136,0.054 z"
   id="path217"
   inkscape:connector-curvature="0"
   style="fill:#b83a33" />
				<path
   clip-path="url(#SVGID_4_)"
   d="m 12.674,15.557 c 0.02,-0.016 0.012,-0.059 -0.018,-0.096 -0.03,-0.037 -0.071,-0.053 -0.091,-0.036 h 0.028 v 0.096 h -0.01 c 0.031,0.036 0.071,0.053 0.091,0.036 z"
   id="path219"
   inkscape:connector-curvature="0"
   style="fill:#b73a33" />
				
					<ellipse
   transform="matrix(0.6366,0.7712,-0.7712,0.6366,16.533,-4.1026)"
   clip-path="url(#SVGID_4_)"
   cx="12.62"
   cy="15.491"
   rx="0.043000001"
   ry="0.023"
   id="ellipse221"
   d="m 12.663,15.491 c 0,0.0127 -0.01925,0.023 -0.043,0.023 -0.02375,0 -0.043,-0.0103 -0.043,-0.023 0,-0.0127 0.01925,-0.023 0.043,-0.023 0.02375,0 0.043,0.0103 0.043,0.023 z"
   sodipodi:cx="12.62"
   sodipodi:cy="15.491"
   sodipodi:rx="0.043000001"
   sodipodi:ry="0.023"
   style="fill:#b63a33" />
			</g>
		</g>
		<g
   id="g3111">
		</g>
	</g>
	<g
   id="g224">
		<path
   d="m 13.951,26.367 h -0.968 v -0.204 l 0.347,-0.351 c 0.103,-0.105 0.17,-0.178 0.202,-0.219 0.032,-0.041 0.054,-0.078 0.068,-0.113 0.014,-0.035 0.021,-0.071 0.021,-0.108 0,-0.056 -0.015,-0.097 -0.046,-0.124 -0.031,-0.027 -0.071,-0.041 -0.123,-0.041 -0.054,0 -0.106,0.012 -0.156,0.037 -0.051,0.025 -0.103,0.06 -0.158,0.105 l -0.159,-0.188 c 0.068,-0.058 0.125,-0.099 0.17,-0.123 0.045,-0.024 0.094,-0.042 0.147,-0.055 0.053,-0.013 0.112,-0.019 0.178,-0.019 0.086,0 0.163,0.016 0.229,0.047 0.066,0.032 0.118,0.076 0.154,0.133 0.037,0.057 0.055,0.122 0.055,0.195 0,0.064 -0.011,0.123 -0.034,0.179 -0.022,0.056 -0.057,0.113 -0.104,0.172 -0.047,0.059 -0.13,0.142 -0.249,0.251 l -0.178,0.168 v 0.013 h 0.603 v 0.245 z"
   id="path226"
   inkscape:connector-curvature="0"
   style="fill:#6c6d6d" />
		<path
   d="m 15.009,25.675 c 0,0.242 -0.04,0.421 -0.119,0.537 -0.079,0.116 -0.201,0.174 -0.366,0.174 -0.16,0 -0.28,-0.06 -0.361,-0.18 -0.081,-0.12 -0.122,-0.297 -0.122,-0.531 0,-0.244 0.039,-0.424 0.118,-0.54 0.079,-0.116 0.2,-0.174 0.365,-0.174 0.16,0 0.28,0.061 0.362,0.182 0.082,0.121 0.123,0.298 0.123,0.532 z m -0.677,0 c 0,0.17 0.015,0.291 0.044,0.365 0.029,0.074 0.079,0.11 0.148,0.11 0.068,0 0.117,-0.037 0.148,-0.112 0.03,-0.075 0.045,-0.196 0.045,-0.364 0,-0.17 -0.015,-0.292 -0.046,-0.366 -0.031,-0.074 -0.08,-0.111 -0.147,-0.111 -0.069,0 -0.118,0.037 -0.148,0.111 -0.029,0.075 -0.044,0.197 -0.044,0.367 z"
   id="path228"
   inkscape:connector-curvature="0"
   style="fill:#6c6d6d" />
		<path
   d="m 15.839,26.367 h -0.293 v -0.801 l 0.003,-0.132 0.005,-0.144 c -0.049,0.049 -0.082,0.081 -0.101,0.096 l -0.159,0.128 -0.141,-0.176 0.446,-0.355 h 0.24 v 1.384 z"
   id="path230"
   inkscape:connector-curvature="0"
   style="fill:#6c6d6d" />
		<path
   d="m 17.18,26.08 h -0.167 v 0.287 H 16.727 V 26.08 h -0.591 v -0.204 l 0.607,-0.894 h 0.27 v 0.87 h 0.167 v 0.228 z m -0.452,-0.227 v -0.235 c 0,-0.039 0.002,-0.096 0.005,-0.17 0.003,-0.075 0.006,-0.118 0.008,-0.13 h -0.008 c -0.023,0.052 -0.051,0.102 -0.084,0.151 l -0.254,0.383 h 0.333 z"
   id="path232"
   inkscape:connector-curvature="0"
   style="fill:#6c6d6d" />
	</g>
	<g
   id="g234">
		<polygon
   points="7.286,24.02 3.896,20.627 26.125,20.627 22.735,24.02 "
   id="polygon236"
   style="fill:#ea453d" />
	</g>
	<g
   id="g238">
		<path
   d="M 11.669,22.995 11.542,22.58 h -0.636 l -0.127,0.415 H 10.38 l 0.616,-1.752 h 0.452 l 0.618,1.752 h -0.397 z m -0.215,-0.726 c -0.117,-0.376 -0.183,-0.589 -0.198,-0.639 -0.015,-0.049 -0.025,-0.088 -0.032,-0.117 -0.026,0.102 -0.102,0.354 -0.226,0.756 h 0.456 z"
   id="path240"
   inkscape:connector-curvature="0"
   style="fill:#ffffff" />
		<path
   d="m 13.439,22.995 h -0.364 v -0.779 c 0,-0.096 -0.017,-0.169 -0.051,-0.217 -0.034,-0.048 -0.089,-0.072 -0.163,-0.072 -0.102,0 -0.176,0.034 -0.221,0.102 -0.045,0.068 -0.068,0.181 -0.068,0.338 v 0.628 H 12.208 V 21.66 h 0.278 l 0.049,0.171 h 0.02 c 0.041,-0.064 0.096,-0.113 0.168,-0.146 0.071,-0.033 0.152,-0.05 0.243,-0.05 0.155,0 0.273,0.042 0.353,0.126 0.08,0.084 0.121,0.205 0.121,0.364 v 0.87 z"
   id="path242"
   inkscape:connector-curvature="0"
   style="fill:#ffffff" />
		<path
   d="m 14.185,23.019 c -0.157,0 -0.28,-0.061 -0.369,-0.183 -0.089,-0.122 -0.134,-0.291 -0.134,-0.506 0,-0.219 0.046,-0.389 0.137,-0.512 0.091,-0.122 0.217,-0.183 0.377,-0.183 0.168,0 0.296,0.065 0.384,0.196 h 0.012 c -0.018,-0.099 -0.027,-0.188 -0.027,-0.266 v -0.427 h 0.365 v 1.857 h -0.279 l -0.07,-0.173 h -0.015 c -0.085,0.131 -0.212,0.197 -0.381,0.197 z m 0.128,-0.291 c 0.093,0 0.161,-0.027 0.205,-0.081 0.043,-0.054 0.067,-0.146 0.071,-0.276 v -0.039 c 0,-0.143 -0.022,-0.246 -0.066,-0.308 -0.044,-0.062 -0.116,-0.093 -0.215,-0.093 -0.081,0 -0.144,0.034 -0.189,0.103 -0.045,0.069 -0.068,0.169 -0.068,0.3 0,0.131 0.023,0.23 0.068,0.295 0.044,0.067 0.109,0.099 0.194,0.099 z"
   id="path244"
   inkscape:connector-curvature="0"
   style="fill:#ffffff" />
		<path
   d="m 16.003,21.635 c 0.049,0 0.09,0.004 0.123,0.011 l -0.027,0.341 c -0.029,-0.008 -0.065,-0.012 -0.107,-0.012 -0.116,0 -0.207,0.03 -0.272,0.089 -0.065,0.06 -0.097,0.143 -0.097,0.251 v 0.679 H 15.259 V 21.66 h 0.276 l 0.054,0.224 h 0.018 c 0.041,-0.075 0.097,-0.135 0.168,-0.181 0.069,-0.045 0.145,-0.068 0.228,-0.068 z"
   id="path246"
   inkscape:connector-curvature="0"
   style="fill:#ffffff" />
		<path
   d="m 17.53,22.325 c 0,0.217 -0.057,0.387 -0.172,0.51 -0.115,0.123 -0.274,0.184 -0.479,0.184 -0.128,0 -0.241,-0.028 -0.339,-0.084 -0.098,-0.056 -0.173,-0.137 -0.226,-0.242 -0.053,-0.105 -0.079,-0.228 -0.079,-0.368 0,-0.218 0.057,-0.388 0.171,-0.509 0.114,-0.121 0.274,-0.181 0.48,-0.181 0.128,0 0.241,0.028 0.339,0.084 0.098,0.056 0.173,0.136 0.226,0.24 0.052,0.104 0.079,0.226 0.079,0.366 z m -0.923,0 c 0,0.132 0.022,0.232 0.065,0.3 0.043,0.068 0.114,0.102 0.212,0.102 0.097,0 0.167,-0.034 0.209,-0.101 0.043,-0.067 0.064,-0.167 0.064,-0.3 0,-0.132 -0.021,-0.231 -0.064,-0.297 -0.043,-0.066 -0.113,-0.099 -0.211,-0.099 -0.097,0 -0.167,0.033 -0.21,0.098 -0.044,0.065 -0.065,0.164 -0.065,0.297 z"
   id="path248"
   inkscape:connector-curvature="0"
   style="fill:#ffffff" />
		<path
   d="m 17.764,21.315 c 0,-0.119 0.066,-0.178 0.198,-0.178 0.132,0 0.198,0.059 0.198,0.178 0,0.057 -0.017,0.101 -0.05,0.132 -0.033,0.031 -0.083,0.047 -0.149,0.047 -0.131,0 -0.197,-0.06 -0.197,-0.179 z m 0.379,1.68 H 17.779 V 21.66 h 0.364 v 1.335 z"
   id="path250"
   inkscape:connector-curvature="0"
   style="fill:#ffffff" />
		<path
   d="m 18.897,23.019 c -0.157,0 -0.28,-0.061 -0.369,-0.183 -0.089,-0.122 -0.134,-0.291 -0.134,-0.506 0,-0.219 0.046,-0.389 0.137,-0.512 0.091,-0.122 0.217,-0.183 0.377,-0.183 0.168,0 0.296,0.065 0.384,0.196 h 0.012 c -0.018,-0.099 -0.027,-0.188 -0.027,-0.266 v -0.427 h 0.365 v 1.857 h -0.279 l -0.07,-0.173 h -0.015 c -0.086,0.131 -0.212,0.197 -0.381,0.197 z m 0.127,-0.291 c 0.093,0 0.161,-0.027 0.205,-0.081 0.043,-0.054 0.067,-0.146 0.071,-0.276 v -0.039 c 0,-0.143 -0.022,-0.246 -0.066,-0.308 -0.044,-0.062 -0.116,-0.093 -0.215,-0.093 -0.081,0 -0.144,0.034 -0.189,0.103 -0.045,0.069 -0.068,0.169 -0.068,0.3 0,0.131 0.023,0.23 0.068,0.295 0.045,0.067 0.11,0.099 0.194,0.099 z"
   id="path252"
   inkscape:connector-curvature="0"
   style="fill:#ffffff" />
	</g>
</g>
</svg>