<?xml version="1.0" encoding="utf-8"?>
<!-- Generator: Adobe Illustrator 17.0.1, SVG Export Plug-In . SVG Version: 6.00 Build 0)  -->
<!DOCTYPE svg PUBLIC "-//W3C//DTD SVG 1.1//EN" "http://www.w3.org/Graphics/SVG/1.1/DTD/svg11.dtd">
<svg version="1.1" id="Layer_1" xmlns="http://www.w3.org/2000/svg" xmlns:xlink="http://www.w3.org/1999/xlink" x="0px" y="0px"
	 width="30px" height="30px" viewBox="0 0 30 30" enable-background="new 0 0 30 30" xml:space="preserve">
<g>
	<g>
		<polygon fill="#9D2E2C" points="22.735,17.234 7.286,17.234 3.896,20.627 26.125,20.627 		"/>
	</g>
	<g>
		<g>
			
				<rect x="4.789" y="4.789" transform="matrix(-0.7071 0.7071 -0.7071 -0.7071 36.2132 15)" fill="#F4F4F4" width="20.422" height="20.422"/>
		</g>
		<g>
			<g>
				<path fill="#6C6D6D" d="M15,0.619L29.381,15L15,29.381L0.619,15L15,0.619 M15,0.5L0.5,15L15,29.5L29.5,15L15,0.5L15,0.5z"/>
			</g>
		</g>
	</g>
	<g>
		<path fill="#6C6D6D" d="M12.325,8.747l-0.504,0.12c-0.199,0.039-0.393,0.06-0.581,0.062c-0.481-0.009-0.825-0.157-1.031-0.443
			C10.002,8.21,9.898,7.92,9.901,7.616c0.002-0.365,0.128-0.679,0.376-0.942c0.246-0.268,0.595-0.406,1.045-0.414
			c0.192,0.004,0.372,0.029,0.538,0.078c0.132,0.038,0.234,0.077,0.308,0.119c0.068,0.041,0.12,0.076,0.158,0.104l-0.291,0.287
			l-0.123,0.03l0.087-0.145c-0.027-0.034-0.062-0.071-0.104-0.11c-0.044-0.038-0.097-0.074-0.157-0.108
			c-0.058-0.039-0.128-0.069-0.21-0.09c-0.038-0.013-0.08-0.023-0.127-0.03c-0.049-0.002-0.099-0.004-0.151-0.004
			c-0.283,0.002-0.513,0.1-0.69,0.294c-0.185,0.194-0.278,0.452-0.281,0.775c0.002,0.353,0.114,0.657,0.335,0.913
			c0.218,0.267,0.52,0.404,0.905,0.411c0.112,0,0.201-0.011,0.269-0.034c0.068-0.017,0.127-0.035,0.176-0.057V8.109l-0.529,0.028
			l0.279-0.155h0.745l-0.094,0.09c-0.021,0.015-0.032,0.035-0.035,0.058c-0.005,0.055-0.007,0.113-0.007,0.174V8.747z"/>
		<path fill="#6C6D6D" d="M14.428,8.041c0,0.222-0.076,0.421-0.228,0.598c-0.152,0.18-0.374,0.275-0.664,0.283
			c-0.278-0.005-0.49-0.097-0.635-0.276c-0.148-0.173-0.221-0.367-0.221-0.581c0.002-0.247,0.087-0.453,0.256-0.62
			c0.166-0.169,0.384-0.255,0.654-0.26c0.262,0.005,0.467,0.092,0.614,0.26C14.351,7.612,14.426,7.811,14.428,8.041z M13.617,8.816
			c0.073,0,0.141-0.017,0.204-0.05c0.063-0.032,0.114-0.077,0.154-0.135c0.042-0.058,0.072-0.123,0.088-0.194
			c0.013-0.07,0.019-0.14,0.019-0.211c0.002-0.179-0.04-0.374-0.127-0.585c-0.045-0.102-0.105-0.185-0.18-0.249
			c-0.077-0.063-0.169-0.095-0.276-0.098c-0.123,0.002-0.228,0.044-0.318,0.124c-0.063,0.063-0.106,0.132-0.129,0.208
			c-0.024,0.077-0.035,0.156-0.033,0.236c0,0.089,0.013,0.187,0.04,0.295c0.021,0.107,0.055,0.211,0.105,0.313
			c0.049,0.1,0.112,0.181,0.187,0.243C13.423,8.782,13.511,8.816,13.617,8.816z"/>
		<path fill="#6C6D6D" d="M16.389,8.041c0,0.222-0.076,0.421-0.228,0.598c-0.152,0.18-0.374,0.275-0.664,0.283
			c-0.278-0.005-0.49-0.097-0.635-0.276c-0.148-0.173-0.221-0.367-0.221-0.581c0.002-0.247,0.087-0.453,0.256-0.62
			c0.166-0.169,0.384-0.255,0.654-0.26c0.262,0.005,0.467,0.092,0.614,0.26C16.312,7.612,16.387,7.811,16.389,8.041z M15.578,8.816
			c0.073,0,0.141-0.017,0.204-0.05c0.063-0.032,0.114-0.077,0.154-0.135c0.042-0.058,0.072-0.123,0.088-0.194
			c0.013-0.07,0.019-0.14,0.019-0.211c0.002-0.179-0.04-0.374-0.127-0.585c-0.045-0.102-0.105-0.185-0.18-0.249
			c-0.077-0.063-0.169-0.095-0.276-0.098c-0.123,0.002-0.228,0.044-0.318,0.124c-0.063,0.063-0.106,0.132-0.129,0.208
			c-0.024,0.077-0.035,0.156-0.033,0.236c0,0.089,0.013,0.187,0.04,0.295c0.021,0.107,0.055,0.211,0.105,0.313
			c0.049,0.1,0.112,0.181,0.187,0.243C15.384,8.782,15.472,8.816,15.578,8.816z"/>
		<path fill="#6C6D6D" d="M17.717,7.362c0.023,0.014,0.048,0.035,0.077,0.062c0.027,0.028,0.054,0.063,0.08,0.104
			c0.025,0.039,0.047,0.085,0.067,0.138c0.016,0.053,0.024,0.115,0.024,0.186c-0.002,0.13-0.031,0.234-0.086,0.312
			c-0.027,0.038-0.056,0.073-0.086,0.104c-0.034,0.032-0.069,0.064-0.107,0.097c-0.022,0.022-0.042,0.048-0.06,0.076
			c-0.022,0.03-0.032,0.064-0.032,0.103c0,0.038,0.011,0.069,0.033,0.094c0.019,0.024,0.037,0.044,0.055,0.062l0.123,0.101
			c0.076,0.063,0.144,0.132,0.201,0.207c0.054,0.077,0.083,0.177,0.085,0.301c0,0.176-0.078,0.332-0.233,0.467
			c-0.161,0.14-0.393,0.213-0.697,0.218c-0.254-0.002-0.444-0.057-0.569-0.163c-0.126-0.099-0.19-0.217-0.19-0.355
			c0-0.067,0.021-0.142,0.062-0.224c0.04-0.082,0.112-0.155,0.217-0.217c0.118-0.067,0.241-0.112,0.37-0.134
			c0.128-0.019,0.235-0.029,0.319-0.032c-0.026-0.034-0.049-0.071-0.07-0.11c-0.024-0.038-0.036-0.084-0.036-0.137
			c0-0.032,0.005-0.059,0.014-0.08c0.008-0.023,0.015-0.043,0.022-0.062c-0.041,0.005-0.08,0.007-0.117,0.007
			c-0.193-0.002-0.34-0.063-0.442-0.182c-0.106-0.111-0.159-0.24-0.159-0.388c0-0.178,0.075-0.34,0.225-0.485
			c0.103-0.085,0.21-0.14,0.322-0.166c0.11-0.022,0.213-0.034,0.31-0.034h0.726l-0.224,0.131H17.717z M17.857,9.451
			c0-0.092-0.03-0.172-0.09-0.241c-0.064-0.065-0.163-0.145-0.298-0.239c-0.023-0.002-0.05-0.004-0.081-0.004
			c-0.019-0.002-0.066,0-0.142,0.007c-0.075,0.011-0.152,0.028-0.231,0.051c-0.019,0.007-0.044,0.018-0.078,0.032
			c-0.034,0.015-0.068,0.037-0.102,0.065c-0.034,0.029-0.062,0.066-0.085,0.11c-0.027,0.046-0.04,0.102-0.04,0.166
			c0,0.127,0.058,0.232,0.173,0.315c0.11,0.083,0.26,0.125,0.451,0.128c0.171-0.002,0.302-0.04,0.392-0.113
			C17.813,9.657,17.857,9.564,17.857,9.451z M17.351,8.387c0.096-0.004,0.175-0.038,0.239-0.103c0.031-0.046,0.05-0.093,0.059-0.142
			c0.005-0.048,0.008-0.089,0.008-0.122c0-0.143-0.037-0.287-0.11-0.433c-0.034-0.07-0.079-0.126-0.136-0.17
			c-0.057-0.041-0.123-0.063-0.197-0.066c-0.098,0.002-0.18,0.042-0.245,0.119c-0.055,0.08-0.081,0.17-0.079,0.27
			c0,0.131,0.038,0.268,0.115,0.41c0.037,0.066,0.085,0.122,0.144,0.169C17.208,8.364,17.276,8.387,17.351,8.387z"/>
		<path fill="#6C6D6D" d="M18.952,8.874h-0.622c0.042-0.053,0.07-0.09,0.082-0.111c0.009-0.022,0.014-0.05,0.014-0.081V8.092
			c0-0.307,0.005-0.661,0.014-1.062c0.007-0.203,0.014-0.398,0.021-0.584h-0.274l0.264-0.131h0.502
			c-0.051,0.03-0.089,0.057-0.113,0.083c-0.023,0.025-0.038,0.069-0.045,0.131c-0.024,0.295-0.035,0.707-0.033,1.236v0.838
			c0,0.066,0.01,0.111,0.029,0.135c0.021,0.022,0.058,0.036,0.111,0.041c0.061,0.005,0.121,0.011,0.18,0.018L18.952,8.874z"/>
		<path fill="#6C6D6D" d="M20.373,8.796c-0.038,0.023-0.077,0.045-0.117,0.065c-0.119,0.048-0.232,0.071-0.34,0.068
			c-0.056,0-0.125-0.008-0.207-0.023c-0.082-0.017-0.169-0.056-0.261-0.119c-0.121-0.094-0.211-0.212-0.269-0.352
			c-0.058-0.138-0.087-0.275-0.087-0.412c0.005-0.283,0.094-0.494,0.269-0.632c0.167-0.137,0.345-0.205,0.533-0.205
			c0.131,0,0.252,0.034,0.362,0.101c0.087,0.06,0.148,0.123,0.184,0.19c0.033,0.067,0.054,0.124,0.063,0.17L19.679,7.99
			l-0.271,0.023c0.049,0.229,0.141,0.407,0.274,0.533c0.13,0.13,0.28,0.195,0.449,0.195c0.091,0,0.171-0.014,0.238-0.042
			c0.067-0.025,0.131-0.053,0.19-0.083L20.373,8.796z M20.042,7.716c0.069-0.02,0.103-0.053,0.103-0.099
			c-0.002-0.077-0.037-0.148-0.103-0.212c-0.065-0.064-0.147-0.097-0.245-0.099c-0.035,0-0.075,0.007-0.119,0.02
			c-0.047,0.017-0.092,0.044-0.134,0.083c-0.042,0.038-0.078,0.09-0.107,0.156c-0.03,0.065-0.045,0.147-0.045,0.246
			c0,0.063,0.004,0.126,0.011,0.191L20.042,7.716z"/>
	</g>
	<g>
		<path fill="#6C6D6D" d="M6.425,12.319c0,0.287-0.082,0.507-0.245,0.66c-0.164,0.153-0.4,0.229-0.709,0.229H4.977v-1.745h0.548
			c0.285,0,0.506,0.075,0.664,0.226C6.346,11.839,6.425,12.049,6.425,12.319z M6.041,12.329c0-0.375-0.166-0.562-0.497-0.562H5.347
			v1.136h0.159C5.862,12.903,6.041,12.712,6.041,12.329z"/>
		<path fill="#6C6D6D" d="M7.311,13.232c-0.215,0-0.383-0.059-0.504-0.178c-0.121-0.119-0.181-0.286-0.181-0.504
			c0-0.224,0.056-0.396,0.168-0.519c0.112-0.122,0.266-0.183,0.464-0.183c0.189,0,0.335,0.054,0.441,0.161
			c0.105,0.107,0.158,0.256,0.158,0.445v0.177H6.994c0.004,0.103,0.035,0.184,0.092,0.242c0.057,0.058,0.138,0.087,0.241,0.087
			c0.08,0,0.156-0.008,0.228-0.025c0.072-0.017,0.146-0.043,0.224-0.08v0.282c-0.064,0.032-0.132,0.056-0.204,0.071
			C7.503,13.225,7.415,13.232,7.311,13.232z M7.259,12.108c-0.077,0-0.138,0.024-0.181,0.073C7.034,12.23,7.009,12.3,7.003,12.39
			h0.511c-0.002-0.09-0.025-0.159-0.07-0.208C7.398,12.132,7.336,12.108,7.259,12.108z"/>
		<path fill="#6C6D6D" d="M8.417,13.209l-0.509-1.335H8.29l0.258,0.76c0.029,0.096,0.047,0.187,0.054,0.273h0.007
			c0.004-0.076,0.022-0.168,0.054-0.273l0.257-0.76h0.381l-0.508,1.335H8.417z"/>
		<path fill="#6C6D6D" d="M10.043,13.232c-0.215,0-0.383-0.059-0.504-0.178c-0.121-0.119-0.181-0.286-0.181-0.504
			c0-0.224,0.056-0.396,0.168-0.519s0.266-0.183,0.464-0.183c0.189,0,0.335,0.054,0.441,0.161c0.105,0.107,0.158,0.256,0.158,0.445
			v0.177H9.727c0.004,0.103,0.035,0.184,0.092,0.242c0.057,0.058,0.138,0.087,0.241,0.087c0.08,0,0.156-0.008,0.228-0.025
			c0.072-0.017,0.146-0.043,0.224-0.08v0.282c-0.064,0.032-0.132,0.056-0.204,0.071C10.236,13.225,10.147,13.232,10.043,13.232z
			 M9.992,12.108c-0.077,0-0.138,0.024-0.181,0.073C9.767,12.23,9.741,12.3,9.735,12.39h0.511c-0.002-0.09-0.025-0.159-0.07-0.208
			C10.13,12.132,10.069,12.108,9.992,12.108z"/>
		<path fill="#6C6D6D" d="M11.196,13.209h-0.364v-1.857h0.364V13.209z"/>
		<path fill="#6C6D6D" d="M12.74,12.539c0,0.217-0.057,0.387-0.172,0.51c-0.115,0.123-0.274,0.184-0.479,0.184
			c-0.128,0-0.241-0.028-0.339-0.084c-0.098-0.056-0.173-0.137-0.226-0.242c-0.053-0.105-0.079-0.228-0.079-0.368
			c0-0.218,0.057-0.388,0.171-0.509c0.114-0.121,0.274-0.181,0.48-0.181c0.128,0,0.241,0.028,0.339,0.084
			c0.098,0.056,0.173,0.136,0.226,0.24C12.713,12.277,12.74,12.399,12.74,12.539z M11.817,12.539c0,0.132,0.022,0.232,0.065,0.3
			c0.043,0.068,0.114,0.102,0.212,0.102c0.097,0,0.167-0.034,0.209-0.101c0.043-0.067,0.064-0.167,0.064-0.3
			c0-0.132-0.021-0.231-0.064-0.297c-0.043-0.066-0.113-0.099-0.211-0.099c-0.097,0-0.167,0.033-0.21,0.098
			C11.838,12.307,11.817,12.406,11.817,12.539z"/>
		<path fill="#6C6D6D" d="M13.722,13.232c-0.157,0-0.28-0.057-0.369-0.171h-0.019c0.013,0.111,0.019,0.176,0.019,0.193v0.541h-0.364
			v-1.922h0.296l0.051,0.173h0.017c0.085-0.132,0.211-0.198,0.378-0.198c0.158,0,0.281,0.061,0.37,0.183
			c0.089,0.122,0.134,0.291,0.134,0.507c0,0.142-0.021,0.266-0.063,0.371c-0.042,0.105-0.101,0.185-0.178,0.24
			C13.917,13.205,13.826,13.232,13.722,13.232z M13.615,12.14c-0.09,0-0.156,0.028-0.197,0.083
			c-0.041,0.055-0.063,0.147-0.065,0.274v0.039c0,0.143,0.021,0.246,0.064,0.308c0.043,0.062,0.11,0.093,0.202,0.093
			c0.163,0,0.245-0.134,0.245-0.403c0-0.131-0.02-0.23-0.06-0.295C13.764,12.173,13.701,12.14,13.615,12.14z"/>
		<path fill="#6C6D6D" d="M15.089,13.232c-0.215,0-0.383-0.059-0.504-0.178c-0.121-0.119-0.181-0.286-0.181-0.504
			c0-0.224,0.056-0.396,0.168-0.519s0.266-0.183,0.464-0.183c0.189,0,0.335,0.054,0.441,0.161c0.105,0.107,0.158,0.256,0.158,0.445
			v0.177h-0.861c0.004,0.103,0.035,0.184,0.092,0.242c0.057,0.058,0.138,0.087,0.241,0.087c0.08,0,0.156-0.008,0.228-0.025
			s0.146-0.043,0.224-0.08v0.282c-0.064,0.032-0.132,0.056-0.204,0.071C15.282,13.225,15.193,13.232,15.089,13.232z M15.038,12.108
			c-0.077,0-0.138,0.024-0.181,0.073c-0.044,0.049-0.069,0.118-0.075,0.208h0.511c-0.002-0.09-0.025-0.159-0.07-0.208
			C15.176,12.132,15.115,12.108,15.038,12.108z"/>
		<path fill="#6C6D6D" d="M16.623,11.849c0.049,0,0.09,0.004,0.123,0.011l-0.027,0.341c-0.029-0.008-0.065-0.012-0.107-0.012
			c-0.116,0-0.207,0.03-0.272,0.089c-0.065,0.06-0.097,0.143-0.097,0.251v0.679h-0.364v-1.335h0.276l0.054,0.224h0.018
			c0.041-0.075,0.097-0.135,0.168-0.181C16.464,11.872,16.54,11.849,16.623,11.849z"/>
		<path fill="#6C6D6D" d="M18.554,13.209h-1.005v-1.745h1.005v0.303h-0.635v0.383h0.591v0.303h-0.591v0.45h0.635V13.209z"/>
		<path fill="#6C6D6D" d="M19.112,12.527l-0.43-0.653h0.413l0.259,0.425l0.261-0.425h0.413l-0.435,0.653l0.455,0.682h-0.414
			l-0.281-0.457l-0.282,0.457h-0.413L19.112,12.527z"/>
		<path fill="#6C6D6D" d="M20.933,13.232c-0.157,0-0.28-0.057-0.369-0.171h-0.019c0.013,0.111,0.019,0.176,0.019,0.193v0.541H20.2
			v-1.922h0.296l0.051,0.173h0.017c0.085-0.132,0.211-0.198,0.378-0.198c0.158,0,0.281,0.061,0.37,0.183
			c0.089,0.122,0.134,0.291,0.134,0.507c0,0.142-0.021,0.266-0.063,0.371c-0.042,0.105-0.101,0.185-0.178,0.24
			C21.128,13.205,21.038,13.232,20.933,13.232z M20.826,12.14c-0.09,0-0.156,0.028-0.197,0.083
			c-0.041,0.055-0.063,0.147-0.065,0.274v0.039c0,0.143,0.021,0.246,0.064,0.308c0.043,0.062,0.11,0.093,0.202,0.093
			c0.163,0,0.245-0.134,0.245-0.403c0-0.131-0.02-0.23-0.06-0.295C20.975,12.173,20.912,12.14,20.826,12.14z"/>
		<path fill="#6C6D6D" d="M22.3,13.232c-0.215,0-0.383-0.059-0.504-0.178c-0.121-0.119-0.181-0.286-0.181-0.504
			c0-0.224,0.056-0.396,0.168-0.519s0.266-0.183,0.464-0.183c0.189,0,0.335,0.054,0.441,0.161c0.105,0.107,0.158,0.256,0.158,0.445
			v0.177h-0.861c0.004,0.103,0.035,0.184,0.092,0.242c0.057,0.058,0.138,0.087,0.241,0.087c0.08,0,0.156-0.008,0.228-0.025
			c0.072-0.017,0.146-0.043,0.224-0.08v0.282c-0.064,0.032-0.132,0.056-0.204,0.071C22.493,13.225,22.405,13.232,22.3,13.232z
			 M22.249,12.108c-0.077,0-0.138,0.024-0.181,0.073c-0.044,0.049-0.069,0.118-0.075,0.208h0.511
			c-0.002-0.09-0.025-0.159-0.07-0.208C22.387,12.132,22.326,12.108,22.249,12.108z"/>
		<path fill="#6C6D6D" d="M23.834,11.849c0.049,0,0.09,0.004,0.123,0.011l-0.027,0.341c-0.029-0.008-0.065-0.012-0.107-0.012
			c-0.116,0-0.207,0.03-0.272,0.089c-0.065,0.06-0.097,0.143-0.097,0.251v0.679h-0.364v-1.335h0.276l0.054,0.224h0.018
			c0.041-0.075,0.097-0.135,0.168-0.181C23.675,11.872,23.751,11.849,23.834,11.849z"/>
		<path fill="#6C6D6D" d="M24.71,12.942c0.064,0,0.14-0.014,0.229-0.042v0.271c-0.091,0.041-0.202,0.061-0.334,0.061
			c-0.146,0-0.252-0.037-0.318-0.11c-0.066-0.074-0.1-0.184-0.1-0.331v-0.643h-0.174v-0.154l0.201-0.122l0.105-0.282h0.233v0.284
			h0.374v0.273h-0.374v0.643c0,0.052,0.014,0.09,0.044,0.115C24.624,12.93,24.663,12.942,24.71,12.942z"/>
	</g>
	<g id="layer2" inkscape:label="shadow" inkscape:groupmode="layer">
		<g id="_x23_d43f36ff" transform="translate(0,-3.3300938e-6)">
			<g id="path6">
				<path inkscape:connector-curvature="0" sodipodi:nodetypes="cccccccc" fill="#D43F36" d="M13.52,14.553
					c-0.176-0.002-0.328,0.122-0.403,0.275c-0.146,0.245-0.293,0.49-0.44,0.736c0.176,0.464,0.459,0.882,0.738,1.288
					c0.013-0.113,0.029-0.239,0.1-0.333c0.362-0.591,0.723-1.181,1.085-1.772c0.079-0.095-0.007-0.214-0.121-0.197
					C14.159,14.549,13.84,14.552,13.52,14.553z"/>
			</g>
		</g>
		<g id="path9">
			<path inkscape:connector-curvature="0" sodipodi:nodetypes="ccccccccccc" fill="#0F9D56" d="M15.123,14.616
				c0.032-0.073,0.124-0.058,0.188-0.063l0.914,0.002c0.147-0.001,0.288,0.083,0.363,0.208l1.097,1.786
				c0.086,0.129,0.087,0.307,0,0.436c-0.21,0.334-0.408,0.676-0.623,1.006c-0.023-0.125-0.059-0.25-0.131-0.356
				c-0.211-0.325-0.401-0.662-0.613-0.987l-1.151-1.858C15.137,14.737,15.1,14.677,15.123,14.616z"/>
		</g>
		<g id="_x23_4585f4ff" transform="translate(0,-3.3300938e-6)">
			<g id="path15">
				<path inkscape:connector-curvature="0" sodipodi:nodetypes="ccccccccc" fill="#557EBE" d="M12.678,15.564
					c0.255,0.452,0.489,0.916,0.78,1.347c0.377,0.617,0.753,1.234,1.13,1.85c0.112,0.155-0.037,0.222-0.183,0.222
					c-0.303-0.001-0.607,0.002-0.91-0.003c-0.164-0.009-0.299-0.122-0.37-0.265c-0.36-0.585-0.721-1.17-1.08-1.756
					c-0.079-0.137-0.06-0.311,0.036-0.433C12.281,16.204,12.479,15.884,12.678,15.564z"/>
			</g>
		</g>
		<g id="_x23_e9b641ff" transform="translate(0,-3.3300938e-6)">
			<g id="path18">
				<path inkscape:connector-curvature="0" sodipodi:nodetypes="ccccccccc" fill="#F6C540" d="M16.318,16.647
					c0.01,0.129-0.01,0.263-0.089,0.369c-0.36,0.589-0.723,1.176-1.081,1.766c-0.064,0.097,0.009,0.194,0.115,0.191l0.982,0.005
					c0.171-0.006,0.32-0.123,0.391-0.275c0.138-0.24,0.284-0.475,0.426-0.712c-0.022-0.156-0.089-0.3-0.177-0.429
					C16.697,17.257,16.508,16.952,16.318,16.647z"/>
			</g>
		</g>
		<g id="_x23_e9b641ff-0">
			<g id="path18-5">
				<g>
					<defs>
						<path id="SVGID_1_" inkscape:connector-curvature="0" sodipodi:nodetypes="ccccccc" d="M16.318,16.648
							c0.211,0.325,0.402,0.662,0.613,0.987c0.072,0.106,0.108,0.231,0.131,0.356l-0.054,0.091l-0.94-0.74
							c0.049-0.087,0.148-0.294,0.197-0.382C16.32,16.866,16.322,16.753,16.318,16.648L16.318,16.648z"/>
					</defs>
					<clipPath id="SVGID_2_">
						<use xlink:href="#SVGID_1_"  overflow="visible"/>
					</clipPath>
					<rect x="16.068" y="16.648" clip-path="url(#SVGID_2_)" fill="#F6C540" width="0.995" height="1.434"/>
					<path clip-path="url(#SVGID_2_)" fill="#F6C540" d="M17.147,17.599v-0.379h0.269c-0.13-0.103-0.266-0.181-0.401-0.232
						c-0.269-0.102-0.533-0.094-0.726,0.047c-0.387,0.283-0.348,0.995,0.088,1.589v-0.459h0.77V17.599z"/>
					<path clip-path="url(#SVGID_2_)" fill="#F5C440" d="M17.147,17.618v-0.365h0.257c-0.125-0.099-0.256-0.175-0.386-0.224
						c-0.26-0.098-0.514-0.091-0.7,0.046c-0.373,0.273-0.335,0.959,0.084,1.532v-0.441h0.745V17.618z"/>
					<path clip-path="url(#SVGID_2_)" fill="#F4C340" d="M17.728,17.636c-0.404-0.552-1.023-0.786-1.382-0.523
						c-0.359,0.263-0.323,0.924,0.081,1.476v-0.423h0.72v-0.53H17.728z"/>
					<path clip-path="url(#SVGID_2_)" fill="#F3C23F" d="M17.703,17.654c-0.389-0.531-0.984-0.756-1.329-0.503
						c-0.345,0.253-0.31,0.888,0.078,1.419v-0.404h0.695v-0.511H17.703z"/>
					<path clip-path="url(#SVGID_2_)" fill="#F2C13F" d="M17.678,17.673c-0.373-0.509-0.944-0.726-1.276-0.483
						s-0.298,0.853,0.075,1.362v-0.386h0.67v-0.493H17.678z"/>
					<path clip-path="url(#SVGID_2_)" fill="#F1C03F" d="M17.653,17.691c-0.357-0.488-0.905-0.695-1.223-0.463
						c-0.318,0.233-0.286,0.817,0.072,1.305v-0.368h0.645v-0.475H17.653z"/>
					<path clip-path="url(#SVGID_2_)" fill="#F0BF3F" d="M17.628,17.709c-0.342-0.467-0.866-0.665-1.169-0.443
						c-0.304,0.223-0.273,0.782,0.069,1.249v-0.349h0.62v-0.456H17.628z"/>
					<path clip-path="url(#SVGID_2_)" fill="#EFBF3E" d="M17.603,17.728c-0.326-0.446-0.826-0.635-1.116-0.423
						s-0.261,0.746,0.066,1.192v-0.331h0.595v-0.438H17.603z"/>
					<path clip-path="url(#SVGID_2_)" fill="#EEBE3E" d="M17.578,17.746c-0.311-0.425-0.787-0.605-1.063-0.402
						c-0.276,0.202-0.248,0.71,0.063,1.135v-0.313h0.57v-0.42H17.578z"/>
					<path clip-path="url(#SVGID_2_)" fill="#EDBD3E" d="M17.553,17.764c-0.295-0.403-0.747-0.574-1.01-0.382
						c-0.262,0.192-0.236,0.675,0.059,1.078v-0.294h0.545v-0.402H17.553z"/>
					<path clip-path="url(#SVGID_2_)" fill="#ECBC3E" d="M17.528,17.782c-0.28-0.382-0.708-0.544-0.957-0.362
						c-0.249,0.182-0.223,0.639,0.056,1.022v-0.276h0.52v-0.383H17.528z"/>
					<path clip-path="url(#SVGID_2_)" fill="#EBBB3E" d="M17.503,17.801c-0.264-0.361-0.669-0.514-0.904-0.342
						c-0.235,0.172-0.211,0.604,0.053,0.965v-0.258h0.495v-0.365H17.503z"/>
					<path clip-path="url(#SVGID_2_)" fill="#EABA3D" d="M17.478,17.819c-0.249-0.34-0.629-0.484-0.851-0.322
						c-0.221,0.162-0.199,0.568,0.05,0.908v-0.24h0.469v-0.347H17.478z"/>
					<path clip-path="url(#SVGID_2_)" fill="#E9B93D" d="M17.453,17.837c-0.233-0.318-0.59-0.454-0.797-0.302
						c-0.207,0.152-0.186,0.533,0.047,0.851v-0.221h0.444v-0.328H17.453z"/>
					<path clip-path="url(#SVGID_2_)" fill="#E7B83D" d="M17.428,17.856c-0.218-0.297-0.551-0.423-0.744-0.282
						c-0.193,0.142-0.174,0.497,0.044,0.795v-0.203h0.419v-0.31H17.428z"/>
					<path clip-path="url(#SVGID_2_)" fill="#E6B73D" d="M17.403,17.874c-0.202-0.276-0.511-0.393-0.691-0.262
						c-0.18,0.131-0.161,0.462,0.041,0.738v-0.185h0.394v-0.292H17.403z"/>
					<path clip-path="url(#SVGID_2_)" fill="#E5B63C" d="M17.378,17.892c-0.187-0.255-0.472-0.363-0.638-0.241
						c-0.166,0.121-0.149,0.426,0.038,0.681v-0.166h0.369v-0.273H17.378z"/>
					<path clip-path="url(#SVGID_2_)" fill="#E4B53C" d="M17.353,17.911c-0.171-0.234-0.433-0.333-0.585-0.221
						c-0.152,0.111-0.137,0.391,0.034,0.624v-0.148h0.344v-0.255H17.353z"/>
					<path clip-path="url(#SVGID_2_)" fill="#E3B43C" d="M17.328,17.929c-0.155-0.212-0.393-0.302-0.532-0.201
						c-0.138,0.101-0.124,0.355,0.031,0.568v-0.13h0.319v-0.237H17.328z"/>
					<path clip-path="url(#SVGID_2_)" fill="#E2B33C" d="M17.303,17.947c-0.14-0.191-0.354-0.272-0.478-0.181
						c-0.124,0.091-0.112,0.32,0.028,0.511v-0.111h0.294v-0.218H17.303z"/>
					<path clip-path="url(#SVGID_2_)" fill="#E1B23C" d="M17.278,17.966c-0.124-0.17-0.315-0.242-0.425-0.161
						c-0.111,0.081-0.099,0.284,0.025,0.454v-0.093h0.269v-0.2H17.278z"/>
					<path clip-path="url(#SVGID_2_)" fill="#E0B23B" d="M17.253,17.984c-0.109-0.149-0.275-0.212-0.372-0.141
						s-0.087,0.249,0.022,0.397v-0.075h0.244v-0.182H17.253z"/>
					<path clip-path="url(#SVGID_2_)" fill="#DFB13B" d="M17.228,18.002c-0.093-0.127-0.236-0.181-0.319-0.121
						s-0.074,0.213,0.019,0.341v-0.056h0.219v-0.163H17.228z"/>
					<path clip-path="url(#SVGID_2_)" fill="#DEB03B" d="M17.203,18.021c-0.078-0.106-0.197-0.151-0.266-0.101
						c-0.069,0.051-0.062,0.178,0.016,0.284v-0.038h0.194v-0.145H17.203z"/>
					<path clip-path="url(#SVGID_2_)" fill="#DDAF3B" d="M17.178,18.039c-0.062-0.085-0.157-0.121-0.213-0.08
						c-0.055,0.04-0.05,0.142,0.013,0.227v-0.02h0.169v-0.127H17.178z"/>
					<path clip-path="url(#SVGID_2_)" fill="#DCAE3A" d="M17.152,18.057c-0.047-0.064-0.118-0.091-0.159-0.06
						c-0.041,0.03-0.037,0.107,0.009,0.17v-0.001h0.144v-0.108H17.152z"/>
					
						<ellipse transform="matrix(0.8068 -0.5908 0.5908 0.8068 -7.4014 13.5872)" clip-path="url(#SVGID_2_)" fill="#DBAD3A" cx="17.077" cy="18.112" rx="0.062" ry="0.095"/>
					
						<ellipse transform="matrix(0.8068 -0.5908 0.5908 0.8068 -7.4014 13.5872)" clip-path="url(#SVGID_2_)" fill="#DAAC3A" cx="17.077" cy="18.112" rx="0.031" ry="0.048"/>
				</g>
			</g>
		</g>
		<g id="_x23_c44034ff-8">
		</g>
		<g id="path12-7">
			<g>
				<defs>
					<path id="SVGID_3_" inkscape:connector-curvature="0" sodipodi:nodetypes="ccccccc" d="M12.771,15.408
						c0.313,0.249,0.627,0.498,0.94,0.747c-0.098,0.211-0.246,0.403-0.287,0.637c-0.002,0.044-0.014,0.048-0.034,0.006
						c-0.204-0.32-0.403-0.628-0.606-0.949c-0.051-0.089-0.081-0.188-0.106-0.287C12.709,15.512,12.74,15.46,12.771,15.408z"/>
				</defs>
				<clipPath id="SVGID_4_">
					<use xlink:href="#SVGID_3_"  overflow="visible"/>
				</clipPath>
				<rect x="12.678" y="15.408" clip-path="url(#SVGID_4_)" fill="#D43F36" width="1.033" height="1.433"/>
				<path clip-path="url(#SVGID_4_)" fill="#D43F36" d="M13.439,16.483c0.3-0.247,0.176-0.892-0.276-1.44v0.281h-0.569v0.615h-0.517
					C12.529,16.487,13.139,16.731,13.439,16.483z"/>
				<path clip-path="url(#SVGID_4_)" fill="#D33F36" d="M13.411,16.45c0.29-0.239,0.17-0.863-0.267-1.392v0.266h-0.551v0.6h-0.498
					C12.532,16.454,13.121,16.689,13.411,16.45z"/>
				<path clip-path="url(#SVGID_4_)" fill="#D23F36" d="M13.384,16.417c0.28-0.231,0.164-0.833-0.258-1.344v0.251h-0.533v0.585
					h-0.48C12.535,16.421,13.104,16.648,13.384,16.417z"/>
				<path clip-path="url(#SVGID_4_)" fill="#D13E36" d="M13.357,16.384c0.27-0.223,0.158-0.803-0.249-1.296v0.236h-0.515v0.57
					h-0.462C12.538,16.387,13.087,16.607,13.357,16.384z"/>
				<path clip-path="url(#SVGID_4_)" fill="#D03E36" d="M13.329,16.351c0.26-0.214,0.153-0.773-0.239-1.248v0.221h-0.497v0.555
					h-0.444C12.541,16.354,13.07,16.565,13.329,16.351z"/>
				<path clip-path="url(#SVGID_4_)" fill="#CF3E35" d="M13.302,16.318c0.25-0.206,0.147-0.744-0.23-1.2v0.206h-0.478v0.54h-0.426
					C12.544,16.321,13.052,16.524,13.302,16.318z"/>
				<path clip-path="url(#SVGID_4_)" fill="#CE3E35" d="M13.275,16.285c0.24-0.198,0.141-0.714-0.221-1.152v0.191h-0.46v0.526
					h-0.408C12.547,16.288,13.035,16.483,13.275,16.285z"/>
				<path clip-path="url(#SVGID_4_)" fill="#CD3E35" d="M13.247,16.252c0.23-0.19,0.135-0.684-0.212-1.104v0.176h-0.442v0.511h-0.39
					C12.55,16.255,13.018,16.441,13.247,16.252z"/>
				<path clip-path="url(#SVGID_4_)" fill="#CC3E35" d="M13.22,16.219c0.22-0.181,0.129-0.654-0.203-1.056v0.161h-0.424v0.496
					h-0.372C12.553,16.221,13,16.4,13.22,16.219z"/>
				<path clip-path="url(#SVGID_4_)" fill="#CB3D35" d="M13.193,16.185c0.21-0.173,0.123-0.625-0.193-1.008v0.147h-0.406v0.481
					H12.24C12.556,16.188,12.983,16.359,13.193,16.185z"/>
				<path clip-path="url(#SVGID_4_)" fill="#CA3D35" d="M13.166,16.152c0.2-0.165,0.117-0.595-0.184-0.96v0.132h-0.388v0.466h-0.336
					C12.559,16.155,12.966,16.317,13.166,16.152z"/>
				<path clip-path="url(#SVGID_4_)" fill="#C93D35" d="M13.138,16.119c0.19-0.157,0.112-0.565-0.175-0.912v0.117h-0.37v0.451
					h-0.318C12.562,16.122,12.948,16.276,13.138,16.119z"/>
				<path clip-path="url(#SVGID_4_)" fill="#C83D35" d="M13.111,16.086c0.18-0.148,0.106-0.535-0.166-0.864v0.102h-0.352v0.436
					h-0.299C12.565,16.089,12.931,16.235,13.111,16.086z"/>
				<path clip-path="url(#SVGID_4_)" fill="#C73D35" d="M13.084,16.053c0.17-0.14,0.1-0.506-0.157-0.816v0.087h-0.334v0.421h-0.281
					C12.568,16.055,12.914,16.193,13.084,16.053z"/>
				<path clip-path="url(#SVGID_4_)" fill="#C63D35" d="M13.056,16.02c0.16-0.132,0.094-0.476-0.147-0.768v0.072h-0.316v0.406H12.33
					C12.571,16.022,12.897,16.152,13.056,16.02z"/>
				<path clip-path="url(#SVGID_4_)" fill="#C43C34" d="M13.029,15.987c0.15-0.124,0.088-0.446-0.138-0.72v0.057h-0.298v0.391
					h-0.245C12.574,15.989,12.879,16.111,13.029,15.987z"/>
				<path clip-path="url(#SVGID_4_)" fill="#C33C34" d="M13.002,15.954c0.14-0.115,0.082-0.416-0.129-0.672v0.042h-0.279V15.7
					h-0.227C12.577,15.956,12.862,16.069,13.002,15.954z"/>
				<path clip-path="url(#SVGID_4_)" fill="#C23C34" d="M12.974,15.921c0.13-0.107,0.076-0.387-0.12-0.624v0.027h-0.261v0.361
					h-0.209C12.58,15.923,12.845,16.028,12.974,15.921z"/>
				<path clip-path="url(#SVGID_4_)" fill="#C13C34" d="M12.947,15.888c0.12-0.099,0.07-0.357-0.11-0.576v0.012h-0.243v0.346h-0.191
					C12.583,15.889,12.827,15.987,12.947,15.888z"/>
				<path clip-path="url(#SVGID_4_)" fill="#C03C34" d="M12.92,15.855c0.11-0.091,0.065-0.327-0.101-0.528s-0.389-0.29-0.499-0.2
					l0.274,0.197v0.331h-0.173C12.586,15.856,12.81,15.945,12.92,15.855z"/>
				<path clip-path="url(#SVGID_4_)" fill="#BF3C34" d="M12.893,15.822c0.1-0.082,0.059-0.297-0.092-0.48
					c-0.151-0.183-0.354-0.264-0.454-0.181l0.247,0.164v0.316h-0.155C12.589,15.823,12.793,15.904,12.893,15.822z"/>
				<path clip-path="url(#SVGID_4_)" fill="#BE3B34" d="M12.865,15.789c0.09-0.074,0.053-0.268-0.083-0.432
					s-0.319-0.237-0.409-0.163l0.22,0.131v0.302h-0.137C12.592,15.79,12.775,15.863,12.865,15.789z"/>
				<path clip-path="url(#SVGID_4_)" fill="#BD3B34" d="M12.838,15.756c0.08-0.066,0.047-0.238-0.074-0.384
					s-0.283-0.211-0.363-0.145l0.192,0.097v0.287h-0.119C12.595,15.757,12.758,15.822,12.838,15.756z"/>
				<path clip-path="url(#SVGID_4_)" fill="#BC3B34" d="M12.811,15.722c0.07-0.058,0.041-0.208-0.064-0.336
					c-0.106-0.128-0.248-0.185-0.318-0.127l0.165,0.064v0.272h-0.1C12.598,15.723,12.741,15.78,12.811,15.722z"/>
				<path clip-path="url(#SVGID_4_)" fill="#BB3B34" d="M12.783,15.689c0.06-0.049,0.035-0.178-0.055-0.288
					c-0.09-0.11-0.212-0.158-0.272-0.109l0.138,0.031v0.257h-0.082C12.602,15.69,12.723,15.739,12.783,15.689z"/>
				<path clip-path="url(#SVGID_4_)" fill="#BA3B33" d="M12.756,15.656c0.05-0.041,0.029-0.149-0.046-0.24
					c-0.075-0.091-0.177-0.132-0.227-0.091h0.11v0.24h-0.064C12.605,15.657,12.706,15.698,12.756,15.656z"/>
				<path clip-path="url(#SVGID_4_)" fill="#B93B33" d="M12.729,15.623c0.04-0.033,0.023-0.119-0.037-0.192
					s-0.142-0.106-0.182-0.073h0.083v0.192h-0.046C12.608,15.624,12.689,15.656,12.729,15.623z"/>
				<path clip-path="url(#SVGID_4_)" fill="#B83A33" d="M12.701,15.59c0.03-0.025,0.018-0.089-0.028-0.144
					c-0.045-0.055-0.106-0.079-0.136-0.054h0.056v0.144h-0.028C12.611,15.591,12.672,15.615,12.701,15.59z"/>
				<path clip-path="url(#SVGID_4_)" fill="#B73A33" d="M12.674,15.557c0.02-0.016,0.012-0.059-0.018-0.096
					s-0.071-0.053-0.091-0.036h0.028v0.096h-0.01C12.614,15.557,12.654,15.574,12.674,15.557z"/>
				
					<ellipse transform="matrix(0.6366 0.7712 -0.7712 0.6366 16.533 -4.1026)" clip-path="url(#SVGID_4_)" fill="#B63A33" cx="12.62" cy="15.491" rx="0.043" ry="0.023"/>
			</g>
		</g>
		<g id="g3111">
		</g>
	</g>
	<g>
		<path fill="#6C6D6D" d="M13.951,26.367h-0.968v-0.204l0.347-0.351c0.103-0.105,0.17-0.178,0.202-0.219
			c0.032-0.041,0.054-0.078,0.068-0.113c0.014-0.035,0.021-0.071,0.021-0.108c0-0.056-0.015-0.097-0.046-0.124
			c-0.031-0.027-0.071-0.041-0.123-0.041c-0.054,0-0.106,0.012-0.156,0.037c-0.051,0.025-0.103,0.06-0.158,0.105l-0.159-0.188
			c0.068-0.058,0.125-0.099,0.17-0.123c0.045-0.024,0.094-0.042,0.147-0.055c0.053-0.013,0.112-0.019,0.178-0.019
			c0.086,0,0.163,0.016,0.229,0.047c0.066,0.032,0.118,0.076,0.154,0.133c0.037,0.057,0.055,0.122,0.055,0.195
			c0,0.064-0.011,0.123-0.034,0.179c-0.022,0.056-0.057,0.113-0.104,0.172s-0.13,0.142-0.249,0.251l-0.178,0.168v0.013h0.603V26.367
			z"/>
		<path fill="#6C6D6D" d="M15.009,25.675c0,0.242-0.04,0.421-0.119,0.537c-0.079,0.116-0.201,0.174-0.366,0.174
			c-0.16,0-0.28-0.06-0.361-0.18s-0.122-0.297-0.122-0.531c0-0.244,0.039-0.424,0.118-0.54c0.079-0.116,0.2-0.174,0.365-0.174
			c0.16,0,0.28,0.061,0.362,0.182C14.968,25.264,15.009,25.441,15.009,25.675z M14.332,25.675c0,0.17,0.015,0.291,0.044,0.365
			c0.029,0.074,0.079,0.11,0.148,0.11c0.068,0,0.117-0.037,0.148-0.112c0.03-0.075,0.045-0.196,0.045-0.364
			c0-0.17-0.015-0.292-0.046-0.366c-0.031-0.074-0.08-0.111-0.147-0.111c-0.069,0-0.118,0.037-0.148,0.111
			C14.347,25.383,14.332,25.505,14.332,25.675z"/>
		<path fill="#6C6D6D" d="M15.839,26.367h-0.293v-0.801l0.003-0.132l0.005-0.144c-0.049,0.049-0.082,0.081-0.101,0.096l-0.159,0.128
			l-0.141-0.176l0.446-0.355h0.24V26.367z"/>
		<path fill="#6C6D6D" d="M17.18,26.08h-0.167v0.287h-0.286V26.08h-0.591v-0.204l0.607-0.894h0.27v0.87h0.167V26.08z M16.728,25.853
			v-0.235c0-0.039,0.002-0.096,0.005-0.17c0.003-0.075,0.006-0.118,0.008-0.13h-0.008c-0.023,0.052-0.051,0.102-0.084,0.151
			l-0.254,0.383H16.728z"/>
	</g>
	<g>
		<polygon fill="#EA453D" points="22.735,24.02 7.286,24.02 3.896,20.627 26.125,20.627 		"/>
	</g>
	<g>
		<path fill="#FFFFFF" d="M11.669,22.995l-0.127-0.415h-0.636l-0.127,0.415h-0.399l0.616-1.752h0.452l0.618,1.752H11.669z
			 M11.454,22.269c-0.117-0.376-0.183-0.589-0.198-0.639c-0.015-0.049-0.025-0.088-0.032-0.117
			c-0.026,0.102-0.102,0.354-0.226,0.756H11.454z"/>
		<path fill="#FFFFFF" d="M13.439,22.995h-0.364v-0.779c0-0.096-0.017-0.169-0.051-0.217c-0.034-0.048-0.089-0.072-0.163-0.072
			c-0.102,0-0.176,0.034-0.221,0.102c-0.045,0.068-0.068,0.181-0.068,0.338v0.628h-0.364V21.66h0.278l0.049,0.171h0.02
			c0.041-0.064,0.096-0.113,0.168-0.146c0.071-0.033,0.152-0.05,0.243-0.05c0.155,0,0.273,0.042,0.353,0.126
			c0.08,0.084,0.121,0.205,0.121,0.364V22.995z"/>
		<path fill="#FFFFFF" d="M14.185,23.019c-0.157,0-0.28-0.061-0.369-0.183c-0.089-0.122-0.134-0.291-0.134-0.506
			c0-0.219,0.046-0.389,0.137-0.512c0.091-0.122,0.217-0.183,0.377-0.183c0.168,0,0.296,0.065,0.384,0.196h0.012
			c-0.018-0.099-0.027-0.188-0.027-0.266v-0.427h0.365v1.857h-0.279l-0.07-0.173h-0.015C14.481,22.953,14.354,23.019,14.185,23.019z
			 M14.313,22.728c0.093,0,0.161-0.027,0.205-0.081c0.043-0.054,0.067-0.146,0.071-0.276v-0.039c0-0.143-0.022-0.246-0.066-0.308
			c-0.044-0.062-0.116-0.093-0.215-0.093c-0.081,0-0.144,0.034-0.189,0.103c-0.045,0.069-0.068,0.169-0.068,0.3
			c0,0.131,0.023,0.23,0.068,0.295C14.163,22.696,14.228,22.728,14.313,22.728z"/>
		<path fill="#FFFFFF" d="M16.003,21.635c0.049,0,0.09,0.004,0.123,0.011l-0.027,0.341c-0.029-0.008-0.065-0.012-0.107-0.012
			c-0.116,0-0.207,0.03-0.272,0.089c-0.065,0.06-0.097,0.143-0.097,0.251v0.679h-0.364V21.66h0.276l0.054,0.224h0.018
			c0.041-0.075,0.097-0.135,0.168-0.181C15.844,21.658,15.92,21.635,16.003,21.635z"/>
		<path fill="#FFFFFF" d="M17.53,22.325c0,0.217-0.057,0.387-0.172,0.51c-0.115,0.123-0.274,0.184-0.479,0.184
			c-0.128,0-0.241-0.028-0.339-0.084c-0.098-0.056-0.173-0.137-0.226-0.242c-0.053-0.105-0.079-0.228-0.079-0.368
			c0-0.218,0.057-0.388,0.171-0.509c0.114-0.121,0.274-0.181,0.48-0.181c0.128,0,0.241,0.028,0.339,0.084
			c0.098,0.056,0.173,0.136,0.226,0.24C17.503,22.063,17.53,22.185,17.53,22.325z M16.607,22.325c0,0.132,0.022,0.232,0.065,0.3
			s0.114,0.102,0.212,0.102c0.097,0,0.167-0.034,0.209-0.101c0.043-0.067,0.064-0.167,0.064-0.3c0-0.132-0.021-0.231-0.064-0.297
			c-0.043-0.066-0.113-0.099-0.211-0.099c-0.097,0-0.167,0.033-0.21,0.098C16.628,22.093,16.607,22.192,16.607,22.325z"/>
		<path fill="#FFFFFF" d="M17.764,21.315c0-0.119,0.066-0.178,0.198-0.178c0.132,0,0.198,0.059,0.198,0.178
			c0,0.057-0.017,0.101-0.05,0.132c-0.033,0.031-0.083,0.047-0.149,0.047C17.83,21.494,17.764,21.434,17.764,21.315z M18.143,22.995
			h-0.364V21.66h0.364V22.995z"/>
		<path fill="#FFFFFF" d="M18.897,23.019c-0.157,0-0.28-0.061-0.369-0.183c-0.089-0.122-0.134-0.291-0.134-0.506
			c0-0.219,0.046-0.389,0.137-0.512c0.091-0.122,0.217-0.183,0.377-0.183c0.168,0,0.296,0.065,0.384,0.196h0.012
			c-0.018-0.099-0.027-0.188-0.027-0.266v-0.427h0.365v1.857h-0.279l-0.07-0.173h-0.015C19.192,22.953,19.066,23.019,18.897,23.019z
			 M19.024,22.728c0.093,0,0.161-0.027,0.205-0.081c0.043-0.054,0.067-0.146,0.071-0.276v-0.039c0-0.143-0.022-0.246-0.066-0.308
			c-0.044-0.062-0.116-0.093-0.215-0.093c-0.081,0-0.144,0.034-0.189,0.103c-0.045,0.069-0.068,0.169-0.068,0.3
			c0,0.131,0.023,0.23,0.068,0.295C18.875,22.696,18.94,22.728,19.024,22.728z"/>
	</g>
</g>
</svg>
