<?xml version="1.0" encoding="UTF-8" standalone="no"?>
<!-- Generator: Adobe Illustrator 17.0.1, SVG Export Plug-In . SVG Version: 6.00 Build 0)  -->

<svg
   xmlns:dc="http://purl.org/dc/elements/1.1/"
   xmlns:cc="http://creativecommons.org/ns#"
   xmlns:rdf="http://www.w3.org/1999/02/22-rdf-syntax-ns#"
   xmlns:svg="http://www.w3.org/2000/svg"
   xmlns="http://www.w3.org/2000/svg"
   xmlns:sodipodi="http://sodipodi.sourceforge.net/DTD/sodipodi-0.dtd"
   xmlns:inkscape="http://www.inkscape.org/namespaces/inkscape"
   version="1.1"
   id="Layer_1"
   x="0px"
   y="0px"
   width="37px"
   height="62px"
   viewBox="0 0 37 62"
   enable-background="new 0 0 37 62"
   xml:space="preserve"
   inkscape:version="0.48.4 r9939"
   sodipodi:docname="gdg.svg"><metadata
   id="metadata235"><rdf:RDF><cc:Work
       rdf:about=""><dc:format>image/svg+xml</dc:format><dc:type
         rdf:resource="http://purl.org/dc/dcmitype/StillImage" /></cc:Work></rdf:RDF></metadata><defs
   id="defs233" /><sodipodi:namedview
   pagecolor="#ffffff"
   bordercolor="#666666"
   borderopacity="1"
   objecttolerance="10"
   gridtolerance="10"
   guidetolerance="10"
   inkscape:pageopacity="0"
   inkscape:pageshadow="2"
   inkscape:window-width="1920"
   inkscape:window-height="1017"
   id="namedview231"
   showgrid="false"
   inkscape:zoom="3.5505787"
   inkscape:cx="165.83811"
   inkscape:cy="125.22594"
   inkscape:window-x="-8"
   inkscape:window-y="-8"
   inkscape:window-maximized="1"
   inkscape:current-layer="g3" />
<g
   id="g3">
	
	
	
	
		<radialGradient
   id="SVGID_1_"
   cx="-310.583"
   cy="-60.055"
   r="20.1137"
   gradientTransform="matrix(0.498 0 0 0.498 172.2891 79.7388)"
   gradientUnits="userSpaceOnUse">
		<stop
   offset="0"
   style="stop-color:#FFCF4F"
   id="stop52" />
		<stop
   offset="1"
   style="stop-color:#F4C236"
   id="stop54" />
	</radialGradient>
	<path
   d="M8.91,61h6.791c1.607,0,3.604-1.128,4.432-2.511l5.72-9.519c0.677-1.396,0.653-3.426-0.119-4.713   l-3.378-5.592L8.91,61z"
   id="path56"
   fill="url(#SVGID_1_)" />
	
		<radialGradient
   id="SVGID_2_"
   cx="-322.6347"
   cy="-70.2695"
   r="27.6582"
   gradientTransform="matrix(0.498 0 0 0.498 172.2891 79.7388)"
   gradientUnits="userSpaceOnUse">
		<stop
   offset="0"
   style="stop-color:#08A960"
   id="stop59" />
		<stop
   offset="1"
   style="stop-color:#07914B"
   id="stop61" />
	</radialGradient>
	<path
   d="M16.209,33.514L1.108,58.763C0.524,60.011,1.131,61,2.629,61H8.91l13.446-22.335l-6.146-10.173   C17.039,29.87,17.039,32.13,16.209,33.514"
   id="path63"
   fill="url(#SVGID_2_)" />
	
		<radialGradient
   id="SVGID_3_"
   cx="-313.1831"
   cy="-109.9511"
   r="40.54"
   gradientTransform="matrix(0.498 0 0 0.498 172.2891 79.7388)"
   gradientUnits="userSpaceOnUse">
		<stop
   offset="0"
   style="stop-color:#567FC0"
   id="stop66" />
		<stop
   offset="1"
   style="stop-color:#557FC0"
   id="stop68" />
	</radialGradient>
	<path
   d="M2.629,1C1.015,1,0.375,2.133,1.205,3.511l24.529,40.745c0.772,1.288,0.795,3.317,0.119,4.713   l5.963-9.925L8.914,1H2.629z"
   id="path70"
   fill="url(#SVGID_3_)" />
	
		<radialGradient
   id="SVGID_4_"
   cx="-301.1191"
   cy="-119.9164"
   r="33.0584"
   gradientTransform="matrix(0.498 0 0 0.498 172.2891 79.7388)"
   gradientUnits="userSpaceOnUse">
		<stop
   offset="0"
   style="stop-color:#E14C40"
   id="stop73" />
		<stop
   offset="1"
   style="stop-color:#CD392D"
   id="stop75" />
	</radialGradient>
	<path
   d="M8.914,1l22.903,38.045l3.321-5.53c0.83-1.385,0.83-3.645,0-5.023L20.133,3.511   C19.305,2.133,17.308,1,15.701,1H8.914z"
   id="path77"
   fill="url(#SVGID_4_)" />
</g>


</svg>